<?xml version="1.0" standalone="no"?>
<!DOCTYPE svg PUBLIC "-//W3C//DTD SVG 20010904//EN"
 "http://www.w3.org/TR/2001/REC-SVG-20010904/DTD/svg10.dtd">
<svg version="1.0" xmlns="http://www.w3.org/2000/svg"
 width="512.000000pt" height="512.000000pt" viewBox="0 0 512.000000 512.000000"
 preserveAspectRatio="xMidYMid meet">
<metadata>
Created by potrace 1.16, written by Peter Selinger 2001-2019
</metadata>
<g transform="translate(0.000000,512.000000) scale(0.100000,-0.100000)"
fill="#000000" stroke="none">
<path d="M2523 5106 c-144 -47 -260 -181 -280 -326 l-8 -55 -100 -50 c-299
-149 -506 -386 -610 -699 -20 -60 -39 -138 -42 -177 -5 -63 -4 -72 17 -94 17
-18 34 -25 60 -25 46 0 77 28 86 77 57 336 258 609 560 761 l61 31 19 -40 c10
-22 41 -64 70 -93 239 -239 646 -109 704 225 31 176 -65 361 -229 441 -58 29
-75 33 -165 35 -65 2 -116 -2 -143 -11z m220 -171 c115 -48 176 -173 142 -290
-38 -131 -172 -208 -297 -171 -215 62 -246 349 -49 451 55 28 149 33 204 10z"/>
<path d="M3274 4536 c-21 -17 -28 -33 -28 -59 0 -32 11 -46 100 -134 105 -104
177 -202 225 -308 66 -147 103 -340 92 -487 l-6 -76 -83 -4 c-155 -8 -278 -92
-348 -238 -29 -60 -31 -73 -31 -170 1 -133 23 -195 100 -279 228 -245 626
-149 711 173 43 162 -19 336 -157 442 l-27 20 9 90 c33 318 -90 675 -315 913
-132 138 -187 165 -242 117z m420 -1250 c18 -7 49 -28 70 -46 128 -112 106
-312 -42 -393 -66 -36 -118 -43 -183 -23 -133 38 -206 172 -169 307 14 48 84
127 135 150 48 22 142 25 189 5z"/>
<path d="M1573 3455 c-193 -60 -320 -264 -286 -459 40 -233 250 -386 474 -348
39 7 84 19 100 27 29 16 31 15 127 -49 143 -96 276 -150 441 -183 118 -23 339
-22 449 1 105 22 220 61 243 82 27 24 33 68 14 103 -19 38 -55 48 -109 32
-210 -61 -228 -64 -376 -64 -123 0 -159 4 -241 26 -113 29 -229 81 -315 139
l-61 41 36 69 c30 60 35 80 39 158 7 153 -47 274 -161 361 -96 72 -259 101
-374 64z m222 -174 c88 -40 144 -126 145 -221 0 -181 -190 -301 -349 -221
-151 78 -184 279 -64 393 70 67 184 88 268 49z"/>
<path d="M1785 2226 c-146 -28 -188 -49 -679 -334 -304 -176 -320 -185 -333
-166 -7 10 -28 41 -46 68 -46 72 -101 99 -192 94 -67 -3 -77 -7 -229 -93 -170
-96 -205 -129 -227 -209 -23 -82 -14 -101 391 -816 223 -394 397 -691 418
-712 45 -47 87 -61 166 -56 54 3 77 12 205 83 167 92 221 139 240 208 20 71 8
128 -49 229 -28 48 -50 91 -50 96 0 4 32 26 71 49 l71 40 107 -29 c849 -228
1117 -297 1187 -303 99 -9 203 6 298 43 86 34 1752 1056 1809 1110 134 128
139 377 9 510 -138 141 -361 144 -631 7 -41 -20 -288 -162 -550 -314 -479
-279 -569 -327 -557 -296 3 9 13 41 22 72 32 111 -3 241 -89 327 -61 61 -106
81 -239 110 -159 35 -323 84 -564 170 -115 40 -239 83 -276 94 -90 28 -196 35
-283 18z m434 -251 c298 -105 433 -147 596 -185 164 -39 177 -44 219 -90 48
-54 57 -113 25 -177 -62 -123 -110 -121 -596 13 -129 36 -211 54 -227 50 -84
-21 -86 -130 -2 -160 116 -43 542 -153 686 -177 116 -19 262 -14 345 11 94 30
82 23 639 348 268 156 525 300 570 318 167 68 276 67 347 -5 69 -69 74 -187
11 -258 -22 -26 -1617 -1015 -1721 -1067 -88 -45 -205 -64 -299 -46 -34 6
-330 83 -658 170 -327 88 -609 160 -627 160 -19 0 -65 -19 -119 -50 -48 -28
-91 -50 -96 -50 -8 0 -446 769 -440 775 14 14 702 407 773 442 109 53 199 74
279 67 37 -3 146 -36 295 -89z m-1641 -267 c10 -13 714 -1253 746 -1316 9 -18
15 -41 12 -50 -9 -26 -275 -174 -306 -170 -22 3 -72 87 -408 680 -325 574
-381 680 -373 697 13 24 268 171 297 171 12 0 26 -6 32 -12z"/>
<path d="M444 1566 c-57 -26 -68 -103 -22 -153 16 -17 33 -23 65 -23 59 0 93
33 93 89 0 74 -68 118 -136 87z"/>
</g>
</svg>
