<?xml version="1.0" encoding="utf-8"?>
<!-- Generator: Adobe Illustrator 21.0.2, SVG Export Plug-In . SVG Version: 6.00 Build 0)  -->
<svg version="1.1" id="Layer_1" xmlns="http://www.w3.org/2000/svg" xmlns:xlink="http://www.w3.org/1999/xlink" x="0px" y="0px"
	 viewBox="0 0 512 512" style="enable-background:new 0 0 512 512;" xml:space="preserve">
<g>
	<path d="M156,146.5c5.8,0,9.9-3.6,11.1-9.8c5.6-33,25-59.4,54.7-74.3l3.8-1.9l0.8,1.6c1.2,2.6,4.5,7,7.5,10
		c11.9,11.9,28.5,15.9,44.4,10.9c16-5.1,27.3-18.1,30.2-34.7c3.3-18.6-6.9-38.3-24.2-46.8c-6.2-3.1-8.3-3.6-17.5-3.8
		c-4.8-0.1-11.3-0.1-15.2,1.2c-15.4,5-27.6,19.3-29.7,34.6l-0.6,4.2l-8.8,4.4c-30.7,15.3-51.6,39.3-62.3,71.3
		c-2.2,6.5-4,14.3-4.3,18.3c-0.5,6.3-0.5,8.3,2.4,11.3C150.4,145.5,152.7,146.5,156,146.5z M286.1,46.8c-1.7,5.9-5.6,10.7-10.9,13.6
		c-4.9,2.7-10.5,3.3-15.8,1.8c-9-2.6-15.2-9.9-16.1-19.1c-0.9-9,3.6-17.2,11.7-21.3c2.8-1.4,6.9-2.2,10.7-2.2c2.8,0,5.6,0.4,7.6,1.3
		l0,0C283.7,25.1,289.2,36.3,286.1,46.8z"/>
	<path d="M360.5,250.2c3.6,0,7.2-0.4,10.9-1.4c15.6-3.9,27.5-15.7,31.7-31.6c4.6-17.2-1.9-35.6-16.6-46.9l-1.6-1.2l0.8-7.6
		c3.4-32.4-9.3-69-32.2-93.3c-11-11.5-19.4-19-27.6-11.9c-2.6,2.1-3.7,4.4-3.7,7.8c0,4.4,1.9,6.4,10.7,15.2
		c10.4,10.3,17.3,19.8,22,30c6.4,14.3,10,33.4,9,47.5l-0.4,5.4l-6.1,0.3c-16.4,0.8-29.5,9.8-36.9,25.2c-3.1,6.5-3.3,8.3-3.3,18.1
		c0.1,13.9,2.6,20.8,10.7,29.6C336.5,245.1,348.3,250.2,360.5,250.2z M382.2,208.6c-0.8,7-4.8,13.1-11.2,16.5
		c-6.1,3.3-10.5,3.9-16.4,2.1c-12-3.4-18.6-15.3-15.2-27.6c1.2-4.2,7.8-11.5,12.1-13.4c2.3-1.1,6-1.6,9.5-1.6c2.9,0,5.6,0.4,7.4,1.1
		l0.1,0c1.4,0.5,4.3,2.5,6.3,4.2C380.2,194.7,382.9,201.5,382.2,208.6z"/>
	<path d="M176.5,249.7c3.6-0.7,8.6-1.9,10.7-2.9l0.1,0c1.1-0.6,1.1-0.6,1.7-0.4c1.4,0.5,4,2.3,8.4,5.2c14.4,9.7,27.8,15.2,45,18.7
		c5.9,1.2,14.3,1.7,22.7,1.7c8.7,0,17.3-0.6,23.2-1.8c9.9-2.1,22.4-6,25.4-8.8c3.6-3.2,4.4-8.8,2-13.3c-1.7-3.4-5.5-7-13.8-4.5
		c-20.7,6-22.4,6.3-36.9,6.3c-12,0-15.5-0.4-23.5-2.5c-10.7-2.8-22.2-7.8-30.7-13.6l-4.2-2.9l2.6-5c3.2-6.3,3.7-8.7,4.2-16.8
		c0.7-16.1-5-29-17.1-38.2c-10.4-7.8-27.4-10.7-39.7-6.8c-20.6,6.4-34,27.8-30.3,48.7C130.5,237.5,152.6,253.7,176.5,249.7z
		 M154.4,190.6c4.2-4,10.1-6.2,15.8-6.2c2.9,0,5.7,0.6,8.2,1.7l0,0c7.8,3.6,12.9,11.4,13,19.8c0,7.7-3.9,14.8-10.5,18.9
		c-6.4,3.9-14.1,4.3-20.7,1c-6.6-3.4-11.1-9.7-12.1-16.9C147.2,202,149.4,195.3,154.4,190.6z"/>
	<path d="M497,306.5c-14.6-14.9-38.1-15.4-66-1.2c-4.9,2.4-36.6,20.7-55.2,31.5c-23.8,13.9-43.2,25.1-50.9,28.8
		c0.3-1.1,0.7-2.3,1.1-3.5c3.5-12.1-0.3-25.9-9.5-35.2c-6.4-6.4-11.3-8.7-25.1-11.7c-16.1-3.6-32.4-8.5-56.1-16.9
		c-12-4.2-24-8.3-27.7-9.4c-9.4-2.9-20.5-3.6-29.5-1.9c-15,2.9-18.8,4.8-68.7,33.7c-18.5,10.7-27.6,16-30.3,16.8
		c-0.9-1.3-2.6-3.8-4.2-6.2c-5.1-7.9-11.5-11.1-21.4-10.6c-7.4,0.3-9,1.1-24,9.6C12.9,339.6,8,343.5,5.5,352.7
		c-2.6,9.2-1.9,10.8,39.3,83.5c6.4,11.4,38.7,68.2,42.2,71.7c4.4,4.6,8.7,6.5,15.6,6.5c0.9,0,1.9,0,2.9-0.1
		c5.9-0.3,8.5-1.4,21.6-8.6c17.4-9.6,23.1-14.6,25.2-22.3c2.2-7.8,0.9-14.1-5.1-24.8c-2-3.4-3.4-6.1-4.2-7.7c1.1-0.8,2.9-2,5.3-3.4
		l6.2-3.5l9.7,2.6c87.6,23.5,112.1,29.8,119.1,30.4c10.3,0.9,21-0.6,30.9-4.5C323.6,468.9,490,366.7,496,361
		c6.9-6.6,10.9-16.5,11.1-27.1C507.3,323.2,503.6,313.2,497,306.5z M310,450.2c-8.5,4.3-19.6,6-28.3,4.4c-3-0.5-29.3-7.3-65.6-17
		c-20.7-5.6-60.5-16.1-63.3-16.1c-3.5,0-10.4,3.7-13.2,5.3c-3.2,1.9-5.9,3.3-7.4,4.1c-6.1-9.8-36.4-63.1-41.7-73.5
		c10.6-6.5,68.7-39.7,75.2-42.9c10.3-5,19-7.1,26.6-6.5c3.4,0.3,14.2,3.6,28.9,8.8l0,0c30.1,10.6,43.5,14.8,59.9,18.6
		c16.3,3.9,17,4.3,20.6,8.2c4.2,4.7,4.9,9.5,2.1,14.9c-5.1,10.2-7.7,10.9-56.7-2.6c-20.8-5.8-23-5.3-24-5c-4.8,1.2-8.1,5-8.3,9.7
		c-0.2,4.9,2.8,9.3,7.8,11.1c11.9,4.4,54.5,15.4,69.1,17.8c11.9,2,26.9,1.5,35.7-1.2l0.6-0.2c9.1-2.9,9.1-2.9,63.8-34.8
		c27.6-16.1,52.5-30,56.7-31.6c15.8-6.4,25.7-6.5,32,0c5.9,5.9,6.4,16.1,1.1,22.3C475.4,348.8,319.5,445.4,310,450.2z M131.2,476.9
		c-3.2,3.1-23.2,14.2-27.7,15.3c-2.7-2.7-13.3-21.1-39.1-66.7c-24.1-42.5-35.5-63.1-36.9-67.6c3.9-3.3,23.9-14.8,27.2-15.5
		c0.4,0,0.9,0.2,1.2,0.4c4.4,7.3,71.8,126.1,74.3,131C130.7,475.1,131.1,476.3,131.2,476.9z"/>
	<path d="M43.4,353.1L43.4,353.1c-3.3,1.5-5.6,4.4-6.3,8c-0.8,4,0.4,8.2,3.3,11.3c2.4,2.6,5.1,3.1,8.3,3.1c7.3,0,11.8-4.4,11.8-11.4
		c0-4.4-2-8.2-5.4-10.4C51.7,351.5,47.4,351.3,43.4,353.1z"/>
</g>
</svg>
