<?xml version="1.0" standalone="no"?>
<!DOCTYPE svg PUBLIC "-//W3C//DTD SVG 20010904//EN"
 "http://www.w3.org/TR/2001/REC-SVG-20010904/DTD/svg10.dtd">
<svg version="1.0" xmlns="http://www.w3.org/2000/svg"
 width="512.000000pt" height="512.000000pt" viewBox="0 0 512.000000 512.000000"
 preserveAspectRatio="xMidYMid meet">

<g transform="translate(0.000000,512.000000) scale(0.100000,-0.100000)"
fill="#000000" stroke="none">
<path d="M1083 4889 c-64 -25 -137 -93 -166 -157 l-22 -47 0 -2125 0 -2125 22
-47 c30 -66 102 -132 169 -157 54 -21 65 -21 1474 -21 1409 0 1420 0 1474 21
67 25 139 91 169 157 l22 47 0 2125 0 2125 -22 47 c-30 66 -102 132 -169 157
-54 21 -65 21 -1477 20 -1399 0 -1423 0 -1474 -20z m2939 -151 c74 -57 68 141
68 -2178 0 -2319 6 -2121 -68 -2178 l-35 -27 -1427 0 -1427 0 -35 27 c-74 57
-68 -143 -66 2190 l3 2095 27 35 c56 73 -68 68 1509 65 l1416 -2 35 -27z"/>
<path d="M1372 4549 c-51 -15 -116 -86 -130 -141 -17 -65 -17 -841 0 -906 14
-57 79 -126 134 -141 54 -15 2314 -15 2368 0 55 15 120 84 134 141 17 65 17
841 0 906 -14 57 -79 126 -134 141 -51 14 -2324 14 -2372 0z m2353 -154 l25
-24 0 -416 0 -416 -25 -24 -24 -25 -1141 0 -1141 0 -24 25 -25 24 0 416 0 416
25 24 24 25 1141 0 1141 0 24 -25z"/>
<path d="M3155 4286 c-43 -19 -94 -74 -106 -116 -6 -21 -9 -115 -7 -236 3
-193 4 -202 27 -236 13 -19 40 -46 59 -59 33 -22 47 -24 173 -27 153 -4 191 7
242 68 40 46 47 90 47 275 0 185 -7 229 -47 275 -49 58 -87 70 -230 70 -83 -1
-139 -5 -158 -14z m279 -148 c13 -18 16 -54 16 -187 0 -209 6 -201 -141 -201
-97 0 -109 2 -119 19 -6 11 -10 92 -10 190 0 141 3 172 16 185 12 13 38 16
119 16 96 0 105 -2 119 -22z"/>
<path d="M1355 3052 c-52 -24 -101 -81 -115 -133 -7 -26 -10 -109 -8 -218 3
-164 5 -179 27 -218 54 -94 96 -105 367 -101 l211 3 42 28 c30 20 50 44 67 82
24 53 25 60 22 243 l-3 189 -30 48 c-52 83 -74 90 -325 93 -191 2 -219 0 -255
-16z m455 -142 c18 -18 20 -33 20 -185 0 -221 18 -205 -230 -205 -248 0 -230
-16 -230 205 0 221 -18 205 230 205 177 0 191 -1 210 -20z"/>
<path d="M2325 3057 c-51 -20 -80 -45 -106 -89 -23 -42 -24 -49 -24 -243 l0
-200 27 -47 c15 -25 45 -57 65 -70 37 -22 44 -23 274 -23 l236 0 40 28 c22 15
50 46 64 70 23 41 24 49 24 242 0 200 0 200 -27 247 -21 34 -41 53 -80 72 -51
26 -55 26 -257 25 -132 0 -217 -5 -236 -12z m445 -147 c18 -18 20 -33 20 -185
0 -221 18 -205 -230 -205 -248 0 -230 -16 -230 205 0 221 -18 205 230 205 177
0 191 -1 210 -20z"/>
<path d="M3285 3058 c-53 -19 -83 -47 -110 -102 -26 -53 -26 -56 -23 -242 3
-217 12 -246 87 -299 l43 -30 220 -3 221 -3 53 26 c41 20 61 38 82 73 26 46
27 52 30 223 4 199 -3 242 -51 296 -58 66 -85 73 -317 72 -118 0 -218 -5 -235
-11z m441 -142 c17 -13 19 -30 22 -185 4 -227 22 -211 -228 -211 -248 0 -230
-16 -230 205 0 220 -17 205 228 205 147 0 192 -3 208 -14z"/>
<path d="M1369 2151 c-42 -14 -84 -50 -110 -94 -22 -39 -24 -54 -27 -218 -4
-199 3 -242 51 -296 58 -66 86 -73 313 -73 260 0 300 13 350 116 25 51 25 56
22 240 -3 217 -12 246 -87 299 l-43 30 -221 2 c-122 1 -234 -2 -248 -6z m441
-151 c18 -18 20 -33 20 -185 0 -220 17 -205 -228 -205 -147 0 -192 3 -208 14
-17 13 -19 30 -22 185 -4 227 -22 211 228 211 177 0 191 -1 210 -20z"/>
<path d="M2299 2137 c-29 -16 -54 -40 -74 -72 l-30 -48 0 -201 c0 -201 0 -201
27 -248 21 -34 41 -53 80 -72 51 -25 56 -26 258 -26 202 0 207 1 258 26 39 19
59 38 80 72 27 47 27 47 27 248 l0 201 -30 48 c-20 32 -45 56 -74 72 -42 22
-53 23 -261 23 -208 0 -219 -1 -261 -23z m471 -137 c18 -18 20 -33 20 -185 0
-221 18 -205 -230 -205 -248 0 -230 -16 -230 205 0 221 -18 205 230 205 177 0
191 -1 210 -20z"/>
<path d="M3262 2139 c-47 -24 -83 -66 -101 -118 -6 -20 -11 -105 -11 -211 0
-168 1 -178 25 -226 50 -101 90 -114 349 -114 227 0 255 7 313 73 48 54 55 97
51 296 -3 165 -5 179 -27 218 -14 24 -42 55 -64 70 l-40 28 -226 3 c-215 3
-228 2 -269 -19z m469 -140 c19 -19 20 -30 17 -190 -3 -155 -5 -172 -22 -185
-16 -11 -61 -14 -208 -14 -245 0 -228 -15 -228 205 0 221 -18 205 230 205 179
0 191 -1 211 -21z"/>
<path d="M1340 1227 c-30 -16 -55 -40 -75 -72 -30 -48 -30 -49 -33 -225 -4
-200 3 -243 51 -297 58 -66 85 -73 318 -73 l207 0 53 28 c43 23 59 38 82 82
l28 54 -3 191 c-3 218 -12 247 -87 300 l-43 30 -226 3 c-223 3 -228 3 -272
-21z m474 -139 c13 -18 16 -54 16 -185 0 -218 17 -203 -228 -203 -147 0 -192
3 -208 14 -17 13 -19 30 -22 185 -4 227 -22 211 232 211 190 0 195 -1 210 -22z"/>
<path d="M2300 1227 c-49 -26 -84 -70 -100 -126 -13 -48 -13 -346 1 -394 13
-49 63 -105 114 -128 35 -16 68 -19 245 -19 231 0 259 7 317 73 48 54 55 97
51 296 -3 160 -5 180 -26 218 -12 24 -41 55 -64 70 l-41 28 -226 3 c-221 3
-227 3 -271 -21z m474 -139 c13 -18 16 -54 16 -185 0 -218 17 -203 -230 -203
-247 0 -230 -15 -230 203 0 131 3 167 16 185 15 21 20 22 214 22 194 0 199 -1
214 -22z"/>
<path d="M3262 1229 c-47 -24 -83 -66 -101 -118 -6 -20 -11 -105 -11 -211 0
-175 0 -179 28 -231 22 -43 38 -59 81 -81 l53 -28 207 0 c233 0 260 7 318 73
48 54 55 97 51 297 -3 176 -3 177 -33 225 -20 32 -45 56 -74 72 -42 22 -53 23
-260 23 -200 0 -219 -2 -259 -21z m468 -139 c18 -18 20 -33 20 -176 0 -150 -6
-188 -34 -206 -6 -4 -95 -8 -198 -8 -245 0 -228 -15 -228 203 0 131 3 167 16
185 15 21 20 22 210 22 181 0 195 -1 214 -20z"/>
</g>
</svg>
