<svg width="40" height="40" viewBox="0 0 40 40" fill="none" xmlns="http://www.w3.org/2000/svg">
<path d="M9.375 1.35156C8.99219 1.47656 8.33594 2.14844 8.21875 2.54688C8.16406 2.72656 8.125 3.0625 8.125 3.30469V3.74219L5.875 3.76562L3.625 3.78906L3.03125 4.07812C2.32031 4.42969 1.88281 4.88281 1.53906 5.60938L1.28906 6.13281V21.2578V36.375L1.57812 36.9688C1.92969 37.6797 2.38281 38.1172 3.10938 38.4609L3.63281 38.7109H20H36.3672L36.8906 38.4609C37.6172 38.1172 38.0703 37.6797 38.4219 36.9688L38.7109 36.375V21.2578V6.13281L38.4609 5.60938C38.1172 4.88281 37.6797 4.42969 36.9688 4.07812L36.375 3.78906L34.125 3.76562L31.875 3.74219V3.30469C31.875 2.67969 31.7344 2.30469 31.3516 1.875C30.6094 1.04688 29.5078 1.03125 28.7109 1.83594C28.2656 2.27344 28.125 2.63281 28.125 3.3125V3.75H25H21.875V3.3125C21.875 2.67969 21.7344 2.30469 21.3516 1.875C20.6094 1.04688 19.5078 1.03125 18.7109 1.83594C18.2656 2.27344 18.125 2.63281 18.125 3.3125V3.75H15H11.875V3.3125C11.875 2.67969 11.7344 2.30469 11.3516 1.875C10.8438 1.3125 10.1172 1.11719 9.375 1.35156ZM10.4297 2.69531L10.625 2.88281V5V7.11719L10.4297 7.30469C10.3125 7.42969 10.1484 7.5 10 7.5C9.85156 7.5 9.6875 7.42969 9.57031 7.30469L9.375 7.11719V5V2.88281L9.57031 2.69531C9.6875 2.57031 9.85156 2.5 10 2.5C10.1484 2.5 10.3125 2.57031 10.4297 2.69531ZM20.4297 2.69531L20.625 2.88281V5V7.11719L20.4297 7.30469C20.3125 7.42969 20.1484 7.5 20 7.5C19.8516 7.5 19.6875 7.42969 19.5703 7.30469L19.375 7.11719V5V2.88281L19.5703 2.69531C19.6875 2.57031 19.8516 2.5 20 2.5C20.1484 2.5 20.3125 2.57031 20.4297 2.69531ZM30.4297 2.69531L30.625 2.88281V5V7.11719L30.4297 7.30469C30.3125 7.42969 30.1484 7.5 30 7.5C29.8516 7.5 29.6875 7.42969 29.5703 7.30469L29.375 7.11719V5V2.88281L29.5703 2.69531C29.6875 2.57031 29.8516 2.5 30 2.5C30.1484 2.5 30.3125 2.57031 30.4297 2.69531ZM8.125 6.0625C8.125 7.39062 8.19531 7.65625 8.71094 8.16406C9.50781 8.96875 10.6094 8.95312 11.3516 8.125C11.7969 7.625 11.875 7.33594 11.875 6.0625V5H15H18.125V6.0625C18.125 7.39062 18.1953 7.65625 18.7109 8.16406C19.5078 8.96875 20.6094 8.95312 21.3516 8.125C21.7969 7.625 21.875 7.33594 21.875 6.0625V5H25H28.125V6.0625C28.125 7.39062 28.1953 7.65625 28.7109 8.16406C29.5078 8.96875 30.6094 8.95312 31.3516 8.125C31.7969 7.625 31.875 7.33594 31.875 6.0625V5H33.875C35.2188 5 35.9844 5.03125 36.2031 5.09375C36.6328 5.21875 37.2812 5.86719 37.4062 6.29688C37.4688 6.51562 37.5 7.34375 37.5 8.9375V11.25H20H2.5V8.9375C2.5 7.34375 2.53125 6.51562 2.59375 6.29688C2.71094 5.89844 3.36719 5.22656 3.75 5.10156C3.91406 5.04688 4.82031 5.01562 6.07812 5.00781L8.125 5V6.0625ZM37.5 24.1875C37.5 33.1406 37.4766 35.9531 37.4062 36.2031C37.2812 36.6328 36.6328 37.2812 36.2031 37.4062C35.7344 37.5469 4.26562 37.5469 3.79688 37.4062C3.36719 37.2812 2.71875 36.6328 2.59375 36.2031C2.52344 35.9531 2.5 33.1406 2.5 24.1875V12.5H20H37.5V24.1875Z" fill="#004282"/>
<path d="M23.375 15.7578C23.289 15.8359 22.8984 16.5781 22.5078 17.4141C22.1172 18.25 21.789 18.9453 21.7734 18.9531C21.7578 18.9688 21.0468 19.0859 20.1953 19.2188C18.3515 19.5 18.3906 19.4922 18.2343 19.7344C17.9765 20.1172 18.1172 20.3438 19.3906 21.6172L20.5781 22.8047L20.3125 24.4688C20.164 25.3828 20.0468 26.2188 20.0546 26.3281C20.0625 26.5547 20.4062 26.875 20.6406 26.875C20.7343 26.875 21.4531 26.5234 22.2343 26.0938C23.0156 25.6641 23.7031 25.3125 23.75 25.3125C23.8046 25.3125 24.4843 25.6641 25.2734 26.0938C26.0546 26.5234 26.7656 26.875 26.8593 26.875C27.0937 26.875 27.4375 26.5547 27.4453 26.3281C27.4531 26.2188 27.3359 25.3828 27.1875 24.4688L26.9218 22.8047L28.1093 21.6172C29.1015 20.6172 29.3125 20.375 29.3437 20.1406C29.3828 19.9062 29.3593 19.8203 29.2031 19.6719C29.0078 19.4688 29.0312 19.4766 26.8203 19.1406L25.7187 18.9688L25 17.4297C24.6093 16.5859 24.2109 15.8359 24.125 15.7578C24.039 15.6875 23.8671 15.625 23.75 15.625C23.6328 15.625 23.4609 15.6875 23.375 15.7578ZM24.289 18.8672C24.5625 19.4453 24.8359 19.9609 24.9062 20.0156C24.9687 20.0703 25.5625 20.2031 26.2265 20.3125L27.4296 20.5078L26.5234 21.4609C26.0312 21.9922 25.625 22.4844 25.625 22.5625C25.625 22.6406 25.7109 23.2266 25.8203 23.8672C25.9218 24.5078 26 25.0391 25.9921 25.0469C25.9843 25.0547 25.539 24.8125 25 24.5078C24.3125 24.125 23.9453 23.9609 23.75 23.9609C23.5546 23.9609 23.1953 24.1172 22.5 24.5156C21.9609 24.8125 21.5156 25.0547 21.5078 25.0469C21.5 25.0391 21.5781 24.5078 21.6796 23.8672C21.789 23.2266 21.875 22.6406 21.875 22.5625C21.875 22.4844 21.4687 21.9922 20.9765 21.4609L20.0703 20.5078L21.2734 20.3125C21.9375 20.2031 22.5312 20.0703 22.5937 20.0156C22.664 19.9609 22.9375 19.4453 23.2109 18.8672C23.4843 18.2891 23.7265 17.8125 23.75 17.8125C23.7734 17.8125 24.0156 18.2891 24.289 18.8672Z" fill="#004282"/>
<path d="M12.6952 17.0702C12.4999 17.2577 12.4999 17.2733 12.4999 18.7499C12.4999 20.7577 12.367 20.6249 14.3749 20.6249C15.8514 20.6249 15.867 20.6249 16.0545 20.4296C16.2499 20.2421 16.2499 20.2265 16.2499 18.7499C16.2499 16.7421 16.3827 16.8749 14.3749 16.8749C12.8983 16.8749 12.8827 16.8749 12.6952 17.0702ZM14.9999 18.7499V19.3749H14.3749H13.7499V18.7499V18.1249H14.3749H14.9999V18.7499Z" fill="#004282"/>
<path d="M31.4452 17.0702C31.2499 17.2577 31.2499 17.2733 31.2499 18.7499C31.2499 20.7577 31.117 20.6249 33.1249 20.6249C35.1327 20.6249 34.9999 20.7577 34.9999 18.7499C34.9999 16.7421 35.1327 16.8749 33.1249 16.8749C31.6483 16.8749 31.6327 16.8749 31.4452 17.0702ZM33.7499 18.7499V19.3749H33.1249H32.4999V18.7499V18.1249H33.1249H33.7499V18.7499Z" fill="#004282"/>
<path d="M6.44517 23.3202C6.24986 23.5077 6.24986 23.5233 6.24986 24.9999C6.24986 27.0077 6.11705 26.8749 8.12486 26.8749C10.1327 26.8749 9.99986 27.0077 9.99986 24.9999C9.99986 22.9921 10.1327 23.1249 8.12486 23.1249C6.6483 23.1249 6.63267 23.1249 6.44517 23.3202ZM8.74986 24.9999V25.6249H8.12486H7.49986V24.9999V24.3749H8.12486H8.74986V24.9999Z" fill="#004282"/>
<path d="M12.6952 23.3202C12.4999 23.5077 12.4999 23.5233 12.4999 24.9999C12.4999 27.0077 12.367 26.8749 14.3749 26.8749C15.8514 26.8749 15.867 26.8749 16.0545 26.6796C16.2499 26.4921 16.2499 26.4765 16.2499 24.9999C16.2499 22.9921 16.3827 23.1249 14.3749 23.1249C12.8983 23.1249 12.8827 23.1249 12.6952 23.3202ZM14.9999 24.9999V25.6249H14.3749H13.7499V24.9999V24.3749H14.3749H14.9999V24.9999Z" fill="#004282"/>
<path d="M31.4452 23.3202C31.2499 23.5077 31.2499 23.5233 31.2499 24.9999C31.2499 27.0077 31.117 26.8749 33.1249 26.8749C35.1327 26.8749 34.9999 27.0077 34.9999 24.9999C34.9999 22.9921 35.1327 23.1249 33.1249 23.1249C31.6483 23.1249 31.6327 23.1249 31.4452 23.3202ZM33.7499 24.9999V25.6249H33.1249H32.4999V24.9999V24.3749H33.1249H33.7499V24.9999Z" fill="#004282"/>
<path d="M6.44517 29.5702C6.24986 29.7577 6.24986 29.7733 6.24986 31.2499C6.24986 33.2577 6.11705 33.1249 8.12486 33.1249C10.1327 33.1249 9.99986 33.2577 9.99986 31.2499C9.99986 29.2421 10.1327 29.3749 8.12486 29.3749C6.6483 29.3749 6.63267 29.3749 6.44517 29.5702ZM8.74986 31.2499V31.8749H8.12486H7.49986V31.2499V30.6249H8.12486H8.74986V31.2499Z" fill="#004282"/>
<path d="M12.6952 29.5702C12.4999 29.7577 12.4999 29.7733 12.4999 31.2499C12.4999 33.2577 12.367 33.1249 14.3749 33.1249C16.3827 33.1249 16.2499 33.2577 16.2499 31.2499C16.2499 29.2421 16.3827 29.3749 14.3749 29.3749C12.8983 29.3749 12.8827 29.3749 12.6952 29.5702ZM14.9999 31.2499V31.8749H14.3749H13.7499V31.2499V30.6249H14.3749H14.9999V31.2499Z" fill="#004282"/>
<path d="M18.9452 29.5702C18.7499 29.7577 18.7499 29.7733 18.7499 31.2499C18.7499 33.2577 18.617 33.1249 20.6249 33.1249C22.6327 33.1249 22.4999 33.2577 22.4999 31.2499C22.4999 29.2421 22.6327 29.3749 20.6249 29.3749C19.1483 29.3749 19.1327 29.3749 18.9452 29.5702ZM21.2499 31.2499V31.8749H20.6249H19.9999V31.2499V30.6249H20.6249H21.2499V31.2499Z" fill="#004282"/>
<path d="M25.1952 29.5702C24.9999 29.7577 24.9999 29.7733 24.9999 31.2499C24.9999 33.2577 24.867 33.1249 26.8749 33.1249C28.8827 33.1249 28.7499 33.2577 28.7499 31.2499C28.7499 29.2421 28.8827 29.3749 26.8749 29.3749C25.3983 29.3749 25.3827 29.3749 25.1952 29.5702ZM27.4999 31.2499V31.8749H26.8749H26.2499V31.2499V30.6249H26.8749H27.4999V31.2499Z" fill="#004282"/>
<path d="M31.4452 29.5702C31.2499 29.7577 31.2499 29.7733 31.2499 31.2499C31.2499 33.2577 31.117 33.1249 33.1249 33.1249C35.1327 33.1249 34.9999 33.2577 34.9999 31.2499C34.9999 29.2421 35.1327 29.3749 33.1249 29.3749C31.6483 29.3749 31.6327 29.3749 31.4452 29.5702ZM33.7499 31.2499V31.8749H33.1249H32.4999V31.2499V30.6249H33.1249H33.7499V31.2499Z" fill="#004282"/>
</svg>
