<?xml version="1.0" encoding="utf-8"?>
<!-- Generator: Adobe Illustrator 21.0.2, SVG Export Plug-In . SVG Version: 6.00 Build 0)  -->
<svg version="1.1" id="Layer_1" xmlns="http://www.w3.org/2000/svg" xmlns:xlink="http://www.w3.org/1999/xlink" x="0px" y="0px"
	 viewBox="0 0 512 512" style="enable-background:new 0 0 512 512;" xml:space="preserve">
<g>
	<path d="M472.4,414.1c-1.2-4.2-4.1-7.7-21.2-25l-13.4-13.5c-0.8-0.8-1.1-1.8-0.8-2.9c0.2-1.1,0.9-1.9,1.9-2.3l5.3-2.1
		c6.9-2.6,14.9-6,16.9-7.3c4.7-2.8,7.8-8.3,8.3-14.7c0.6-7-1.9-13.6-6.7-17.7c-2.3-1.8-27.3-11.6-44.4-18
		c-13.2-5-26.2-9.9-35.5-13.4c-6.6-2.5-11.4-4.3-13.1-4.9l-4.2-1.6c-1.2-0.5-2-1.6-2-2.9l-0.2-97.8L363,89.9c0-1.5-0.4-3-1.2-4.2
		l-2.2-3.6c-2.4-3.7-5.4-6.7-9.3-9l-4.1-2.4c-1.3-0.7-2.7-1.1-4.2-1.1h-28.8c-24.2,0-31.6,0.3-34.6,1.5c-5.7,2.4-10.8,7.5-13.6,13.4
		c-2.5,5.1-2.7,7.6-2.7,21.1v9.3c0,0.8-0.3,1.6-0.9,2.2c-0.6,0.6-1.4,0.9-2.2,0.9c0,0,0,0,0,0l-55-0.5c-1.4,0-2.9,0.4-4.1,1.1
		l-3,1.7c0,0,0,0-0.1,0c0.5-2.9,1.4-7.2,2.4-12.5c3.8-19.4,4.2-25.4-0.2-33.3C193.5,64,190,63,159.8,56.9c-29.5-5.8-32.4-6.1-39-3.8
		c-6,2.1-11.8,7.1-14.7,12.8c-1.5,3-7.3,30.6-35,173C38.9,404.5,38.4,407.7,39.6,413.3c1.6,7.1,6.7,14.2,12.8,17.6
		c1.1,0.6,4.5,2.3,31.7,7.6c29.9,5.8,34,6.3,43.1,0.2c0.4-0.2,0.7-0.5,1-0.7c8.5-5.4,8.5-5.4,31.4-124.2l16.5-85
		c0.5-2.7,2.9-2.6,3.4-2.5c0.5,0,2.8,0.4,2.9,3.1l0.8,191.6c0,1.3,0.3,2.6,1,3.8l1.5,2.9c2.7,5.1,7.8,9.8,13.5,12.4
		c3.4,1.6,7.9,1.8,34.1,1.8h28c1.4,0,2.8-0.4,4-1l6-3.4c0.9-0.5,2-0.6,3-0.1l7.2,3.6c1.1,0.6,2.4,0.9,3.7,0.9h50.3
		c1.3,0,2.5,0.8,2.9,2c3.8,9.3,14.3,14.7,24,12.3c9.1-2.2,12.2-7.1,18.7-23.8l2.6-6.7c0.4-1,1.2-1.7,2.3-1.9
		c1.1-0.2,2.1,0.1,2.9,0.8l13.1,12.9c18.9,18.9,23.7,22.9,31.4,22.9c6.4,0,11.3-3.1,22.8-14.4C470.6,431.8,475.3,424.8,472.4,414.1z
		 M342.3,189.6l-0.3,87.9c0,1-0.5,2-1.4,2.6c-0.9,0.6-1.9,0.7-2.9,0.4l-10.9-4.1c-10.1-3.9-20.8-7.3-23.8-7.7
		c-0.7-0.1-1.3-0.1-2-0.1c-4.8,0-9.4,1.8-13,5c-1.9,1.7-3.4,3.8-4.5,6.1V95.2c0-0.7,0.2-1.4,0.7-1.9l1.3-1.6
		c0.6-0.7,1.5-1.2,2.4-1.2c0,0,0,0,0,0l25.3,0.2l25.2,0.3c1,0,1.9,0.5,2.5,1.3l0.1,0.2c0,0,0,0,0,0
		C342.4,94.2,342.5,107.5,342.3,189.6z M283.5,297.3c2.8,8.8,9,25.9,22.6,61.8c10,26.6,20.3,54.1,22.6,62.1
		c-3.6,0.1-10.9,0.2-20.6,0l-19.7-0.3c-0.9,0-1.8-0.4-2.3-1.1l-1.8-2.1c-0.5-0.6-0.8-1.3-0.8-2V297.3z M405.5,369.3
		c0,3.8,2.1,6.2,24.4,28.7l19.8,19.8c1.2,1.2,1.2,3.2,0,4.5l-7,7c-4.5,4.6-8.3,8.1-10.1,9.6c-3.1-2.8-11.6-11-22.5-21.8
		c-22.6-22.6-24.2-23.9-28.6-23.9c-3.2,0-5.7,1-7.7,3.2c-2.4,2.6-9.2,19.7-10,21.7c-2.4,6.2-5,13-6.7,16.5
		c-7.6-19-48.6-128.3-54.1-144.5c6,2.1,35.9,13.3,74.1,27.6c38.4,14.5,61.9,23.5,69.2,27c-3.9,2-12.2,5.2-15.7,6.6
		C411.1,358.8,405.5,361.4,405.5,369.3z M262.5,143.2v272.6c0,0.8-0.3,1.5-0.8,2l-1.8,2c-0.6,0.7-1.5,1.1-2.4,1.1h-49.2
		c-0.9,0-1.8-0.4-2.4-1.1l-1.8-2c-0.5-0.6-0.8-1.3-0.8-2V143.2c0-0.7,0.2-1.4,0.7-1.9l1.2-1.6c0.6-0.8,1.5-1.2,2.5-1.2h50.2
		c1,0,1.9,0.5,2.5,1.2l0.3,0.4c0,0,0,0,0,0l0.9,1.2C262.3,141.9,262.5,142.5,262.5,143.2z M62.4,412.1c-0.3-0.2-0.7-0.6-1.1-0.9
		c-0.6-0.7-0.9-1.6-0.8-2.5c1.2-10,9.4-53.6,31.5-166.7C118,107.7,123.4,80.9,125.7,75c0.2-0.6,0.6-1.1,1.1-1.4c1-0.7,1.7-1,2-1.1
		c1.7,0.2,12.2,2.1,26,4.8c0,0,0,0,0,0c20.6,4.1,24.8,5.6,25.6,6.1c0.6,0.6,1,1.9,1,3.4c-0.4,3.7-13.3,71.9-32,168.2
		c-26.4,135.4-32,164.1-33.8,165.7c-1,0.9-2.2,1.5-2.6,1.6C108.8,422.4,66.2,413.6,62.4,412.1z"/>
	<path d="M143.5,116c7.4,1.5,12.5,2.4,16.1,2.4c4.1,0,6.4-1.1,8.3-3.5c3.5-4.4,3.4-9-0.2-13.1c-2.5-2.7-5.5-3.6-16.2-5.8
		c-15.3-3-17.7-3.5-21.8,0.7c-3.9,3.8-4.3,9.6-0.9,13.9C130.8,113,134.2,114.1,143.5,116z"/>
	<path d="M142.3,140.2l14.2,2.7c0.2,0,0.3,0,0.5,0c0.5,0,1.1-0.2,1.5-0.5l2.8-2.1c2.6-2,3.8-4.2,4-7.8c0.6-8.4-5.1-10.4-18.1-12.8
		c-14.9-2.7-19.3-3.3-23,1.4c-3.5,4.4-3.4,9.1,0.3,13C127,137,130.3,137.9,142.3,140.2z"/>
	<path d="M330.9,110.5c-0.5-0.6-1.2-1-2-1h-31.8c-0.8,0-1.5,0.4-2,1l-2,2.6c-3.5,4.3-3.3,8.9,0.4,13.3l2.4,2.8
		c0.5,0.6,1.2,0.9,1.9,0.9h30.4c0.7,0,1.4-0.3,1.9-0.9l2.4-2.8c3.7-4.3,3.8-8.9,0.4-13.2L330.9,110.5z"/>
	<path d="M330.9,134.5c-0.5-0.6-1.2-1-2-1h-31.8c-0.8,0-1.5,0.4-2,1l-2,2.6c-3.5,4.3-3.3,8.9,0.4,13.3l2.4,2.8
		c0.5,0.6,1.2,0.9,1.9,0.9h30.4c0.7,0,1.4-0.3,1.9-0.9l2.4-2.8c3.7-4.3,3.8-8.9,0.4-13.2L330.9,134.5z"/>
	<path d="M250.9,158.5c-0.5-0.6-1.2-1-2-1h-31.8c-0.8,0-1.5,0.4-2,1l-2,2.6c-3.5,4.3-3.3,8.9,0.4,13.3l2.4,2.8
		c0.5,0.6,1.2,0.9,1.9,0.9h30.4c0.7,0,1.4-0.3,1.9-0.9l2.4-2.8c3.7-4.3,3.8-8.9,0.4-13.2L250.9,158.5z"/>
	<path d="M250.9,182.5c-0.5-0.6-1.2-1-2-1h-31.8c-0.8,0-1.5,0.4-2,1l-2,2.6c-3.5,4.3-3.3,8.9,0.4,13.3l2.4,2.8
		c0.5,0.6,1.2,0.9,1.9,0.9h30.4c0.7,0,1.4-0.3,1.9-0.9l2.4-2.8c3.7-4.3,3.8-8.9,0.4-13.2L250.9,182.5z"/>
</g>
</svg>
