<?xml version="1.0" standalone="no"?>
<!DOCTYPE svg PUBLIC "-//W3C//DTD SVG 20010904//EN"
 "http://www.w3.org/TR/2001/REC-SVG-20010904/DTD/svg10.dtd">
<svg version="1.0" xmlns="http://www.w3.org/2000/svg"
 width="512.000000pt" height="512.000000pt" viewBox="0 0 512.000000 512.000000"
 preserveAspectRatio="xMidYMid meet">

<g transform="translate(0.000000,512.000000) scale(0.100000,-0.100000)"
fill="#000000" stroke="none">
<path d="M1216 4565 c-55 -19 -107 -65 -133 -116 -16 -32 -113 -515 -348
-1724 -313 -1613 -326 -1682 -315 -1733 14 -64 61 -129 115 -159 27 -14 131
-39 310 -74 305 -59 333 -59 412 -6 90 60 75 -1 344 1390 l244 1258 5 -1253 5
-1253 22 -41 c25 -47 71 -89 123 -113 30 -14 81 -16 330 -16 l295 0 50 28 49
28 56 -28 55 -28 277 0 278 0 14 -36 c33 -81 127 -129 211 -108 77 19 104 55
170 223 l57 148 192 -190 c193 -193 232 -222 296 -222 56 0 100 28 211 137
151 147 183 206 159 295 -10 36 -41 72 -206 239 l-195 196 133 52 c73 28 148
60 165 71 90 54 97 212 14 283 -15 12 -212 92 -437 176 -225 85 -444 167 -486
183 l-78 30 -2 1017 -3 1018 -30 49 c-21 33 -48 60 -85 82 l-54 32 -303 0
c-232 0 -311 -3 -336 -13 -52 -22 -98 -68 -123 -122 -22 -45 -24 -64 -24 -200
l0 -150 -311 3 -311 3 -44 -25 c-24 -13 -44 -20 -44 -15 0 5 14 80 31 167 39
198 39 247 1 316 -52 92 -74 101 -379 162 -288 57 -317 60 -377 39z m337 -194
c168 -33 255 -55 268 -67 12 -11 19 -30 19 -54 0 -20 -144 -779 -320 -1686
-303 -1557 -322 -1650 -346 -1671 -14 -13 -33 -23 -42 -23 -42 0 -499 94 -520
107 -13 8 -27 24 -33 36 -7 17 69 424 316 1692 309 1590 326 1671 350 1693 15
12 34 22 43 22 9 0 129 -22 265 -49z m1878 -161 c18 -24 19 -62 17 -986 l-3
-960 -185 69 c-102 39 -206 72 -232 75 -102 10 -188 -70 -188 -174 0 -39 48
-177 244 -697 179 -475 241 -650 231 -653 -7 -3 -113 -4 -235 -2 l-222 3 -24
28 -24 28 0 1623 0 1623 21 27 21 26 280 -2 281 -3 18 -25z m-802 -476 l21
-27 0 -1383 0 -1383 -24 -28 -24 -28 -272 0 -272 0 -24 28 -24 28 0 1383 0
1383 21 27 20 26 279 0 279 0 20 -26z m1151 -1767 c576 -217 725 -277 725
-291 0 -13 -45 -35 -190 -91 -204 -80 -235 -100 -235 -158 0 -27 28 -59 237
-269 l238 -238 -110 -110 c-60 -61 -114 -110 -120 -110 -5 0 -114 104 -242
232 -216 216 -235 232 -268 232 -25 0 -43 -7 -59 -24 -13 -14 -55 -108 -95
-209 -73 -190 -84 -212 -100 -196 -13 15 -561 1478 -561 1499 0 15 5 17 28 13
15 -4 353 -130 752 -280z"/>
<path d="M1315 4135 c-30 -29 -33 -73 -7 -105 14 -17 44 -27 132 -46 156 -32
193 -31 219 2 27 34 27 67 -1 99 -19 21 -43 29 -148 50 -156 31 -165 31 -195
0z"/>
<path d="M1261 3894 c-27 -34 -27 -67 2 -98 19 -22 43 -30 165 -53 l142 -27
28 21 c20 15 28 30 30 60 4 59 -22 76 -161 102 -153 28 -180 28 -206 -5z"/>
<path d="M2951 3974 c-28 -35 -26 -67 3 -101 l24 -28 152 0 152 0 24 28 c29
34 31 66 3 101 l-20 26 -159 0 -159 0 -20 -26z"/>
<path d="M2951 3734 c-28 -35 -26 -67 3 -101 l24 -28 152 0 152 0 24 28 c29
34 31 66 3 101 l-20 26 -159 0 -159 0 -20 -26z"/>
<path d="M2151 3494 c-28 -35 -26 -67 3 -101 l24 -28 152 0 152 0 24 28 c29
34 31 66 3 101 l-20 26 -159 0 -159 0 -20 -26z"/>
<path d="M2151 3254 c-28 -35 -26 -67 3 -101 l24 -28 152 0 152 0 24 28 c29
34 31 66 3 101 l-20 26 -159 0 -159 0 -20 -26z"/>
</g>
</svg>
