<?xml version="1.0" standalone="no"?>
<!DOCTYPE svg PUBLIC "-//W3C//DTD SVG 20010904//EN"
 "http://www.w3.org/TR/2001/REC-SVG-20010904/DTD/svg10.dtd">
<svg version="1.0" xmlns="http://www.w3.org/2000/svg"
 width="512.000000pt" height="512.000000pt" viewBox="0 0 512.000000 512.000000"
 preserveAspectRatio="xMidYMid meet">

<g transform="translate(0.000000,512.000000) scale(0.100000,-0.100000)"
fill="#000000" stroke="none">
<path d="M1346 4869 c-62 -15 -153 -68 -197 -116 -22 -24 -55 -74 -72 -111
l-32 -67 0 -2016 0 -2015 37 -76 c45 -91 103 -147 196 -191 l67 -32 1215 0
1215 0 67 32 c93 44 151 100 196 191 l37 76 0 2015 0 2016 -32 67 c-44 93
-100 151 -191 196 l-76 37 -1195 2 c-701 1 -1212 -3 -1235 -8z m574 -205 c0
-31 5 -75 12 -98 16 -55 99 -138 154 -154 58 -17 890 -17 948 0 55 16 138 99
154 154 7 23 12 67 12 98 l0 56 256 0 c172 0 270 -4 298 -12 55 -16 138 -99
154 -154 9 -32 12 -444 12 -1778 l0 -1736 -1360 0 -1360 0 0 1736 c0 1334 3
1746 12 1778 15 51 99 137 148 153 21 7 137 11 298 12 l262 1 0 -56z m1120 1
c0 -46 -4 -60 -25 -80 l-24 -25 -431 0 -431 0 -24 25 c-21 20 -25 34 -25 80
l0 55 480 0 480 0 0 -55z m880 -3921 c0 -78 -5 -154 -12 -178 -16 -55 -99
-138 -154 -154 -60 -17 -2328 -17 -2388 0 -55 16 -138 99 -154 154 -7 24 -12
100 -12 178 l0 136 1360 0 1360 0 0 -136z"/>
<path d="M1960 3913 c-8 -3 -77 -66 -152 -141 l-137 -136 -54 51 c-29 28 -63
54 -76 58 -48 15 -101 -30 -101 -87 0 -26 154 -186 197 -204 22 -9 40 -11 55
-5 13 5 101 88 196 183 186 188 194 202 150 252 -25 26 -54 37 -78 29z"/>
<path d="M2265 3895 c-16 -15 -25 -36 -25 -55 0 -19 9 -40 25 -55 l24 -25 671
0 671 0 24 25 c33 32 33 78 0 110 l-24 25 -671 0 -671 0 -24 -25z"/>
<path d="M2585 3575 c-16 -15 -25 -36 -25 -55 0 -19 9 -40 25 -55 l24 -25 511
0 511 0 24 25 c16 15 25 36 25 55 0 19 -9 40 -25 55 l-24 25 -511 0 -511 0
-24 -25z"/>
<path d="M1960 2953 c-8 -3 -77 -66 -152 -141 l-137 -136 -54 51 c-29 28 -63
54 -76 58 -48 15 -101 -30 -101 -87 0 -26 154 -186 197 -204 22 -9 40 -11 55
-5 13 5 101 88 196 183 186 188 194 202 150 252 -25 26 -54 37 -78 29z"/>
<path d="M2265 2935 c-16 -15 -25 -36 -25 -55 0 -19 9 -40 25 -55 l24 -25 671
0 671 0 24 25 c33 32 33 78 0 110 l-24 25 -671 0 -671 0 -24 -25z"/>
<path d="M2585 2615 c-16 -15 -25 -36 -25 -55 0 -19 9 -40 25 -55 l24 -25 511
0 511 0 24 25 c16 15 25 36 25 55 0 19 -9 40 -25 55 l-24 25 -511 0 -511 0
-24 -25z"/>
<path d="M1960 1993 c-8 -3 -77 -66 -152 -141 l-137 -136 -54 51 c-29 28 -63
54 -76 58 -48 15 -101 -30 -101 -87 0 -26 154 -186 197 -204 22 -9 40 -11 55
-5 13 5 101 88 196 183 186 188 194 202 150 252 -25 26 -54 37 -78 29z"/>
<path d="M2265 1975 c-16 -15 -25 -36 -25 -55 0 -19 9 -40 25 -55 l24 -25 671
0 671 0 24 25 c33 32 33 78 0 110 l-24 25 -671 0 -671 0 -24 -25z"/>
<path d="M2585 1655 c-16 -15 -25 -36 -25 -55 0 -19 9 -40 25 -55 l24 -25 511
0 511 0 24 25 c16 15 25 36 25 55 0 19 -9 40 -25 55 l-24 25 -511 0 -511 0
-24 -25z"/>
</g>
</svg>
