<?xml version="1.0" standalone="no"?>
<!DOCTYPE svg PUBLIC "-//W3C//DTD SVG 20010904//EN"
 "http://www.w3.org/TR/2001/REC-SVG-20010904/DTD/svg10.dtd">
<svg version="1.0" xmlns="http://www.w3.org/2000/svg"
 width="512.000000pt" height="512.000000pt" viewBox="0 0 512.000000 512.000000"
 preserveAspectRatio="xMidYMid meet">

<g transform="translate(0.000000,512.000000) scale(0.100000,-0.100000)"
fill="#000000" stroke="none">
<path d="M920 4985 c-293 -60 -518 -270 -602 -562 l-23 -78 0 -1360 c0 -1288
1 -1363 18 -1425 65 -230 223 -419 427 -514 108 -49 179 -66 313 -73 l117 -6
0 -356 c0 -319 2 -360 18 -390 42 -85 148 -124 225 -85 20 11 222 202 450 426
l415 407 953 3 954 3 73 23 c273 84 471 287 549 562 17 62 18 135 18 1425 l0
1360 -23 79 c-65 225 -211 398 -417 497 -167 80 -8 74 -1800 76 -1302 1 -1612
-1 -1665 -12z m3310 -255 c183 -72 306 -214 345 -397 22 -101 22 -2595 0
-2696 -31 -148 -138 -290 -274 -361 -128 -67 -100 -66 -1165 -66 l-959 0 -381
-377 -381 -378 -3 378 -2 377 -193 0 c-224 0 -295 12 -398 66 -137 72 -243
211 -274 361 -22 101 -22 2595 0 2696 44 210 210 375 420 417 22 4 751 7 1620
6 l1580 -1 65 -25z"/>
<path d="M2490 4249 c-109 -10 -163 -25 -276 -79 -166 -80 -309 -232 -377
-402 -29 -74 -57 -199 -57 -258 l0 -40 120 0 120 0 0 33 c1 118 71 267 170
361 109 102 219 146 370 146 185 0 335 -74 436 -216 193 -271 103 -645 -193
-802 -144 -76 -245 -179 -305 -311 -31 -67 -58 -173 -58 -228 l0 -33 119 0
119 0 6 54 c9 72 56 166 108 218 24 24 83 65 132 93 273 153 430 430 413 730
-25 450 -397 772 -847 734z"/>
<path d="M2440 1935 l0 -155 120 0 120 0 0 155 0 155 -120 0 -120 0 0 -155z"/>
</g>
</svg>
