<?xml version="1.0" encoding="UTF-8"?>
<svg version="1.1" xmlns="http://www.w3.org/2000/svg" width="512" height="512">
<path d="M0 0 C5.0782255 2.76459381 9.08542377 6.88640388 13.25 10.83203125 C15.94282724 13.37385095 18.73945434 15.73946399 21.625 18.0625 C26.11050452 21.67420494 30.47445493 25.40170825 34.8125 29.1875 C39.09449271 32.92172748 43.39582259 36.61209448 47.8125 40.1875 C54.14123745 45.31612131 60.25955834 50.68024671 66.40283203 56.02783203 C73.44522391 62.1482846 80.50252801 68.24780337 87.75 74.125 C94.09526881 79.27936792 100.23759448 84.66112765 106.40283203 90.02783203 C113.44522391 96.1482846 120.50252801 102.24780337 127.75 108.125 C134.09526881 113.27936792 140.23759448 118.66112765 146.40283203 124.02783203 C153.44522391 130.1482846 160.50252801 136.24780337 167.75 142.125 C173.43010285 146.73904249 178.94291034 151.53470196 184.4609375 156.33984375 C187.61008591 159.081596 190.77379581 161.80565451 193.94677734 164.51977539 C195.13583283 165.53705695 196.32368752 166.55574396 197.51025391 167.57592773 C199.94289459 169.66721287 202.38110376 171.74389818 204.859375 173.78125 C209.38911111 177.55051947 212.73396292 180.6963265 213.62109375 186.81640625 C213.88263042 191.50029017 213.31166578 195.23013632 210.703125 199.1796875 C207.09111834 203.09607674 202.45156944 204.88297382 197.1875 205.125 C189.94892861 204.30774194 185.47026228 200.37703904 180.25 195.6875 C178.92768943 194.52014642 177.604761 193.35349239 176.28125 192.1875 C175.61996094 191.60226563 174.95867187 191.01703125 174.27734375 190.4140625 C171.30142595 187.79904129 168.27945475 185.24011671 165.25 182.6875 C164.24839844 181.841875 163.24679687 180.99625 162.21484375 180.125 C160.19003746 178.42448973 158.16279915 176.72738537 156.13110352 175.03515625 C155.20096436 174.26042969 154.2708252 173.48570312 153.3125 172.6875 C153.30891747 174.00830126 153.30891747 174.00830126 153.30526257 175.35578537 C153.24603687 196.81558498 153.17043842 218.275273 153.07678509 239.73495102 C153.03188611 250.11284111 152.99245789 260.49069733 152.96606445 270.86865234 C152.94303655 279.9177449 152.90958516 288.96672976 152.86379844 298.01573682 C152.83993075 302.80378883 152.82115976 307.5917346 152.81488609 312.37984467 C152.80880594 316.8942733 152.7887011 321.40843033 152.75822449 325.9227581 C152.74949099 327.57218217 152.74571186 329.2216418 152.74749184 330.87108803 C152.75806892 345.20585254 151.69073444 357.77899756 141.4609375 368.65625 C134.89492479 374.82987151 126.91077534 378.800825 117.80613613 378.82172108 C116.90275617 378.82617892 115.99937621 378.83063676 115.0686211 378.83522969 C114.08002017 378.83504533 113.09141925 378.83486097 112.07286072 378.83467102 C111.01956418 378.83834771 109.96626764 378.8420244 108.88105303 378.8458125 C105.33988658 378.8568547 101.79874946 378.86069412 98.25756836 378.86450195 C95.72313341 378.87076624 93.18869938 378.877413 90.65426636 378.88441467 C83.03994661 378.90364538 75.42563201 378.91424386 67.81129417 378.92314246 C64.22292024 378.92752837 60.63454777 378.93289444 57.046175 378.93813133 C45.1126826 378.95514296 33.1791911 378.96963584 21.24568844 378.97688007 C18.14987626 378.97878988 15.0540641 378.98071022 11.95825195 378.98266602 C11.18883015 378.98314976 10.41940834 378.9836335 9.62667073 378.9841319 C-2.82991955 378.9924274 -15.28641365 379.01775647 -27.74296195 379.05024669 C-40.54053406 379.0833534 -53.33805736 379.10133214 -66.13567251 379.10452431 C-73.31750449 379.1066862 -80.49919625 379.11538745 -87.6809864 379.14098549 C-94.44024476 379.16502221 -101.19920771 379.16849556 -107.95851517 379.15822411 C-110.43563233 379.15772885 -112.91276194 379.16404615 -115.38984108 379.17778015 C-118.77985276 379.19551992 -122.16896217 379.18838167 -125.55897522 379.17524719 C-127.01845403 379.19170106 -127.01845403 379.19170106 -128.50741726 379.20848733 C-138.69083446 379.11367443 -148.28928335 375.92725627 -155.68359375 368.75 C-163.7382547 360.23718403 -166.78725977 352.0925167 -166.84571838 340.44255066 C-166.85065636 339.72365687 -166.85559434 339.00476308 -166.86068195 338.26408464 C-166.87600961 335.86119866 -166.8844047 333.4583393 -166.89282227 331.05541992 C-166.90240451 329.33056404 -166.9124148 327.60571049 -166.92282104 325.88085938 C-166.94983861 321.20156755 -166.97086522 316.52226568 -166.99082303 311.84293914 C-167.012702 306.95153331 -167.04008134 302.06015837 -167.06687927 297.16877747 C-167.11678031 287.90768543 -167.16172875 278.64657624 -167.20490164 269.38545066 C-167.25429613 258.84137951 -167.30920606 248.29733934 -167.36458123 237.75329816 C-167.47836153 216.06472765 -167.58520918 194.37612755 -167.6875 172.6875 C-168.10589142 173.0505423 -168.52428284 173.41358459 -168.95535278 173.78762817 C-170.88927875 175.46545178 -172.82354395 177.14288385 -174.7578125 178.8203125 C-175.41563721 179.39112549 -176.07346191 179.96193848 -176.7512207 180.55004883 C-205.12306082 205.15061666 -205.12306082 205.15061666 -214.26953125 205.03125 C-218.490529 204.43117278 -221.53062575 202.48125961 -224.6875 199.6875 C-227.86994022 195.41109596 -228.0595597 191.40981632 -228.18359375 186.25 C-227.02020229 180.24067086 -222.5093203 176.31563409 -218.125 172.375 C-217.33283081 171.66126221 -217.33283081 171.66126221 -216.5246582 170.93310547 C-212.34387979 167.19645278 -208.02621512 163.64297549 -203.66015625 160.125 C-200.15431527 157.25030253 -196.73079802 154.29027333 -193.3125 151.3125 C-188.08768619 146.7622173 -182.8343428 142.25069697 -177.53613281 137.78613281 C-173.52365816 134.40268052 -169.54039612 130.98649816 -165.5625 127.5625 C-161.50129124 124.06926144 -157.41231029 120.62301293 -153.25 117.25 C-146.90473119 112.09563208 -140.76240552 106.71387235 -134.59716797 101.34716797 C-127.55477609 95.2267154 -120.49747199 89.12719663 -113.25 83.25 C-106.90473119 78.09563208 -100.76240552 72.71387235 -94.59716797 67.34716797 C-87.55477609 61.2267154 -80.49747199 55.12719663 -73.25 49.25 C-66.90473119 44.09563208 -60.76240552 38.71387235 -54.59716797 33.34716797 C-46.63239239 26.42508355 -38.62574553 19.56412027 -30.421875 12.92578125 C-28.43220356 11.29709306 -26.46746483 9.65322145 -24.515625 7.98046875 C-23.71439209 7.29815186 -23.71439209 7.29815186 -22.89697266 6.60205078 C-21.39890683 5.32373206 -19.90631166 4.03901031 -18.4140625 2.75390625 C-12.44404981 -1.77064491 -7.10787255 -2.52992074 0 0 Z M-7.6875 35.6875 C-9.08548828 36.90373047 -9.08548828 36.90373047 -10.51171875 38.14453125 C-17.25136709 44.00087517 -24.00855822 49.83305468 -30.83618164 55.58666992 C-34.84962428 58.97076942 -38.83372718 62.38774722 -42.8125 65.8125 C-46.87370876 69.30573856 -50.96268971 72.75198707 -55.125 76.125 C-61.47026881 81.27936792 -67.61259448 86.66112765 -73.77783203 92.02783203 C-80.82022391 98.1482846 -87.87752801 104.24780337 -95.125 110.125 C-101.4614342 115.27219142 -107.59499489 120.64643937 -113.75146484 126.00585938 C-116.92855165 128.76547778 -120.11895832 131.50945504 -123.3125 134.25 C-123.88009033 134.73831299 -124.44768066 135.22662598 -125.0324707 135.72973633 C-127.4068278 137.7658639 -129.679396 139.68244363 -132.33804417 141.34126854 C-135.06241894 144.0619044 -135.28234939 145.67202014 -135.34223074 149.45529711 C-135.32903077 150.22436211 -135.3158308 150.99342712 -135.30223083 151.78579712 C-135.30791409 152.60859771 -135.31359735 153.4313983 -135.31945282 154.27913225 C-135.33238722 157.04027875 -135.30953967 159.79996833 -135.28686523 162.56103516 C-135.2887287 164.53865364 -135.29276406 166.51627111 -135.29881287 168.49388123 C-135.3088046 173.8677749 -135.28759037 179.24114287 -135.26033282 184.61496019 C-135.23654252 190.23144571 -135.23944809 195.84792009 -135.23902893 201.46444702 C-135.23439815 210.89500863 -135.21073577 220.3253686 -135.17456055 229.75585938 C-135.13280137 240.67134193 -135.11524444 251.58664288 -135.1119408 262.50220072 C-135.10834612 274.10785049 -135.08947909 285.71343456 -135.06482053 297.31905699 C-135.05858143 300.67067841 -135.05495175 304.02229483 -135.05178642 307.37392044 C-135.04590129 312.63193142 -135.02963147 317.88981161 -135.00518227 323.14776802 C-134.99771925 325.08198982 -134.99366886 327.01622811 -134.99320221 328.95046425 C-134.99195166 331.5815027 -134.97846315 334.21219195 -134.96165466 336.84317017 C-134.96406975 337.61669661 -134.96648483 338.39022306 -134.9689731 339.1871897 C-135.0691389 343.39593683 -135.0691389 343.39593683 -132.6875 346.6875 C-130.76340411 346.99066152 -130.76340411 346.99066152 -128.52703094 346.94197559 C-127.64994996 346.94780779 -126.77286897 346.95363998 -125.86920977 346.95964891 C-124.89977167 346.95586958 -123.93033357 346.95209026 -122.93151855 346.94819641 C-121.39361451 346.95393473 -121.39361451 346.95393473 -119.8246417 346.95978898 C-116.36676725 346.97016144 -112.90905752 346.9661188 -109.45117188 346.9621582 C-106.98124537 346.9665023 -104.51132022 346.97168443 -102.04139709 346.97764587 C-96.01575526 346.98968189 -89.99017891 346.99218346 -83.96453106 346.98984561 C-79.06899526 346.98806525 -74.17347302 346.98980601 -69.27793884 346.99407005 C-68.23428797 346.99496284 -68.23428797 346.99496284 -67.16955325 346.99587366 C-65.75628078 346.99708536 -64.34300831 346.99829949 -62.92973584 346.99951603 C-49.66583329 347.01040114 -36.40195615 347.00822438 -23.13805217 347.00213119 C-10.99212849 346.9969601 1.15371502 347.00822077 13.29962283 347.02722941 C25.75922015 347.04658012 38.21877949 347.05486875 50.67839193 347.05110615 C57.67828604 347.04919003 64.67811189 347.0517216 71.67799377 347.06582069 C78.25740746 347.07893835 84.8366866 347.07651223 91.41610909 347.06340981 C93.83733231 347.06103139 96.25856667 347.06382351 98.67977715 347.07203293 C101.972215 347.08239543 105.26410139 347.07448469 108.55651855 347.0617218 C109.52595665 347.06909609 110.49539475 347.07647037 111.49420977 347.08406812 C112.37129076 347.07686158 113.24837174 347.06965503 114.15203094 347.06223011 C115.2929832 347.06231263 115.2929832 347.06231263 116.456985 347.06239682 C118.72651416 346.83100422 118.72651416 346.83100422 120.3125 343.6875 C120.5337073 341.03273549 120.63855198 338.47874492 120.65394592 335.82144165 C120.67238443 334.60628956 120.67238443 334.60628956 120.69119543 333.36658895 C120.72972007 330.64237322 120.75376018 327.91822884 120.77758789 325.19384766 C120.80157283 323.24407151 120.82622159 321.29430344 120.85148621 319.34454346 C120.92983375 312.93033975 120.98518638 306.51604339 121.03515625 300.1015625 C121.04369653 299.00965213 121.0522368 297.91774177 121.06103587 296.79274321 C121.13953469 286.49003217 121.20714841 276.18728447 121.25394535 265.88437843 C121.31470731 252.71653188 121.42490414 239.55113615 121.60193068 226.38432658 C121.72224273 217.12132387 121.78474601 207.85898554 121.80516809 198.59523046 C121.81896096 193.06538855 121.85801826 187.53846436 121.95958138 182.00947952 C122.05412424 176.79950696 122.07666102 171.59399916 122.04570198 166.38330841 C122.04662979 164.47930354 122.07292562 162.57510166 122.12749863 160.67187881 C122.50630471 149.29212488 122.50630471 149.29212488 117.05004692 139.73530197 C113.94065865 136.85247056 110.63065105 134.34322144 107.13435733 131.95039821 C104.5721011 130.17426089 102.20090765 128.18854571 99.8125 126.1875 C98.94238281 125.48238281 98.07226562 124.77726562 97.17578125 124.05078125 C91.76850249 119.58774762 86.510162 114.95025106 81.22216797 110.34716797 C74.17977609 104.2267154 67.12247199 98.12719663 59.875 92.25 C53.52973119 87.09563208 47.38740552 81.71387235 41.22216797 76.34716797 C33.32287422 69.48199297 25.36970004 62.70274211 17.23828125 56.11328125 C12.98740027 52.58885256 8.83731201 48.94970745 4.70141602 45.29125977 C0.73439977 41.81203088 -3.34826974 38.69158249 -7.6875 35.6875 Z " fill="#000000" transform="translate(267.6875,61.3125)"/>
</svg>
