<?xml version="1.0" standalone="no"?>
<!DOCTYPE svg PUBLIC "-//W3C//DTD SVG 20010904//EN"
 "http://www.w3.org/TR/2001/REC-SVG-20010904/DTD/svg10.dtd">
<svg version="1.0" xmlns="http://www.w3.org/2000/svg"
 width="512.000000pt" height="512.000000pt" viewBox="0 0 512.000000 512.000000"
 preserveAspectRatio="xMidYMid meet">

<g transform="translate(0.000000,512.000000) scale(0.100000,-0.100000)"
fill="#000000" stroke="none">
<path d="M3970 4954 c-323 -41 -580 -163 -791 -373 -179 -180 -296 -396 -349
-649 -28 -133 -36 -365 -17 -497 l14 -99 -45 -56 c-103 -125 -175 -257 -227
-413 -58 -176 -66 -230 -72 -499 l-6 -246 -58 88 c-31 49 -74 106 -94 128
l-36 40 13 69 c20 105 17 436 -5 548 -113 571 -516 997 -1062 1123 -205 47
-461 53 -659 16 -117 -22 -128 -33 -150 -150 -39 -206 -31 -463 21 -674 131
-536 545 -930 1092 -1041 168 -34 486 -35 617 -3 47 12 211 -253 268 -434 44
-139 56 -245 56 -489 l0 -221 -87 -6 c-558 -40 -1046 -194 -1500 -472 -189
-115 -454 -320 -481 -371 -16 -30 -9 -66 18 -93 20 -20 42 -20 2130 -20 l2111
0 24 25 c38 37 33 80 -12 123 -74 70 -240 197 -363 278 -483 318 -990 486
-1591 529 l-86 7 9 56 c26 172 103 331 225 462 l52 57 53 -8 c146 -21 334 -3
473 44 139 48 232 104 339 206 175 168 268 377 283 636 6 120 -9 271 -32 316
-32 61 -256 87 -462 54 -404 -66 -702 -364 -768 -770 -16 -98 -19 -231 -6
-310 l9 -50 -58 -65 c-31 -36 -72 -85 -89 -110 l-32 -45 4 505 c5 543 5 545
62 716 42 125 134 289 215 383 l20 23 114 -12 c135 -15 345 -9 464 15 265 52
504 183 690 380 169 178 273 382 327 640 47 224 19 631 -46 665 -42 23 -171
41 -324 44 -88 2 -176 2 -195 0z m367 -170 l42 -6 8 -57 c12 -84 9 -337 -5
-413 -68 -371 -274 -657 -588 -818 -153 -79 -308 -117 -515 -126 -230 -11
-244 -45 144 344 347 348 351 353 331 407 -10 24 -62 48 -93 40 -16 -4 -149
-129 -358 -337 l-331 -331 -7 57 c-9 70 1 233 21 339 87 459 437 808 897 891
45 9 100 17 122 20 50 5 276 -2 332 -10z m-3319 -795 c306 -33 548 -140 751
-334 193 -184 313 -407 366 -680 19 -99 30 -311 21 -389 l-8 -59 -451 451
c-500 499 -489 491 -548 433 -58 -59 -66 -48 433 -548 l451 -451 -69 -7 c-94
-11 -278 1 -395 25 -258 53 -462 161 -640 339 -226 226 -341 496 -365 856 -7
113 11 324 29 342 27 27 266 40 425 22z m2890 -1203 c4 -4 7 -74 7 -154 -1
-122 -4 -160 -23 -226 -46 -160 -146 -312 -264 -401 -135 -101 -275 -152 -448
-162 l-105 -5 183 184 c161 163 182 188 182 217 0 37 -38 81 -70 81 -38 0 -63
-20 -237 -193 l-173 -172 0 52 c0 301 158 571 410 702 87 45 126 58 224 77 73
14 300 14 314 0z m-1111 -1837 c525 -43 1016 -216 1453 -511 63 -42 126 -86
140 -97 l25 -21 -1855 0 -1855 0 25 21 c14 11 77 55 140 97 570 385 1255 567
1927 511z"/>
</g>
</svg>
