<?xml version="1.0" encoding="utf-8"?>
<!-- Generator: Adobe Illustrator 21.0.2, SVG Export Plug-In . SVG Version: 6.00 Build 0)  -->
<svg version="1.1" id="Layer_1" xmlns="http://www.w3.org/2000/svg" xmlns:xlink="http://www.w3.org/1999/xlink" x="0px" y="0px"
	 viewBox="0 0 512 512" style="enable-background:new 0 0 512 512;" xml:space="preserve">
<g>
	<path d="M442.9,172.7c-3.9-7.9-10.4-13.5-18.4-15.9l-3.9-1.1l-0.5-7.4c-0.9-14-4.9-21.1-14.5-25.1c-3.7-1.5-11.2-1.7-66.6-1.7
		c-46.3,0-61-0.1-62.2-1.2l0,0c-0.6-0.7-2.8-4.8-5.5-11.4c-5-12.8-9.6-18.1-17.3-20.2c-6-1.7-141.4-1.6-146.3,0.1
		c-5.4,1.9-10.4,6.2-13.1,11.3c-2.5,4.6-2.6,6.6-2.9,31.4l-0.4,24.2l-3.8,1.2c-7.8,2.3-14.4,7.8-18.1,15.3l-2.9,5.7v223.3l2.6,5.5
		c2.8,6.1,9.5,12.8,15.7,15.5c3.8,1.9,11.8,2,170.7,2c150.2,0,167.4-0.3,170.5-1.4c6.3-2.2,14.4-10.1,17.3-16.7l2.6-5.8V178.9
		L442.9,172.7z M425.5,310.7c0,45.5,0,68.3-0.7,80c-0.6,10.2-1.5,10.6-3.5,11.5c-0.5,0.2-1,0.4-1.5,0.7l0,0
		c-2.8,1.5-21.1,1.6-163.8,1.6s-161-0.1-163.8-1.6c-1.4-0.8-3.6-2.8-4.5-4.3C86,395.9,86,388.3,85.7,295l0-1
		c-0.2-58.8,0-105,0.3-107.5c0.6-4.4,3.2-8.7,6.1-10.1c5.2-0.4,68.4-0.8,163.9-0.8c146.5-0.1,161.9-0.1,164.4,1.5
		c0.5,0.3,1,0.5,1.4,0.8c1.7,0.9,2.5,1.3,3.1,11.2c0.6,11.3,0.6,33.4,0.6,77.5l0,22.8L425.5,310.7z M109.2,133.4L109.2,133.4l2.5,0
		c0.3-22.5,0.3-23.4,1.8-24.6c1.5-1.2,10.8-1.3,67.9-1.3c39.1,0.1,63.4,0.2,67.3,1c0.8,1.2,2.9,5.4,5.2,11c5.1,13,9.5,18.4,17,20.7
		c3,0.9,13.7,1.3,66.3,1.3c6.2,0,11.8,0,16.9,0c30.6,0,43.3-0.1,45.6,2.2c0.5,0.5,0.5,1.8,0.5,3.9c0,0.9,0,1.9,0.1,3.1l0.3,4.8
		H111.4l0.3-22.1L109.2,133.4L109.2,133.4L109.2,133.4z"/>
	<path d="M281.7,245.8c-53.2-30.7-55.3-31.9-63.8-29.2c-2.1,0.6-4.8,2.3-6.3,3.8l-0.4,0.4c-5.7,5.2-5.7,5.2-5.7,62.2l0,6.5l0,5.7
		c0,59.9,0,59.9,7,64.8l0.5,0.4c2.9,2,5.5,2.7,11,2.7h7.2l49.6-28.7c5-2.9,48.5-28.1,51.7-30.8l0,0c6.7-6,8-17.3,2.8-24.6
		C333.9,277,328.7,272.9,281.7,245.8z M316.2,289.6c-14.3,8.9-76.6,45.2-90.2,52.5c-0.5-6.7-0.5-25.8-0.5-52.6
		c0-23.9,0.1-44.3,0.3-52.5c6.9,3.9,23.9,13.6,45.1,25.9C292.3,275.4,309.6,285.6,316.2,289.6z"/>
</g>
</svg>
