<?xml version="1.0" standalone="no"?>
<!DOCTYPE svg PUBLIC "-//W3C//DTD SVG 20010904//EN"
 "http://www.w3.org/TR/2001/REC-SVG-20010904/DTD/svg10.dtd">
<svg version="1.0" xmlns="http://www.w3.org/2000/svg"
 width="512.000000pt" height="512.000000pt" viewBox="0 0 512.000000 512.000000"
 preserveAspectRatio="xMidYMid meet">
<metadata>
Created by potrace 1.16, written by Peter Selinger 2001-2019
</metadata>
<g transform="translate(0.000000,512.000000) scale(0.100000,-0.100000)"
fill="#000000" stroke="none">
<path d="M1085 4208 c-48 -17 -93 -56 -117 -101 -22 -40 -23 -56 -26 -302 l-4
-260 -56 -17 c-72 -21 -132 -72 -166 -140 l-26 -52 0 -1110 0 -1111 24 -50
c25 -55 89 -118 145 -143 33 -16 174 -17 1696 -17 1347 0 1667 2 1697 13 56
20 132 93 159 154 l24 53 0 1100 0 1100 -28 57 c-36 73 -95 124 -168 146 l-56
16 -6 92 c-8 130 -43 193 -129 229 -32 13 -120 15 -657 15 -575 0 -620 1 -639
18 -11 9 -38 65 -62 124 -47 119 -88 168 -157 187 -52 15 -1406 14 -1448 -1z
m1417 -152 c9 -7 36 -62 60 -122 48 -123 88 -172 154 -192 31 -9 200 -12 656
-12 716 0 650 12 656 -116 l4 -74 -1471 0 -1472 0 3 246 c3 245 3 246 27 265
22 18 48 19 695 19 533 -1 675 -3 688 -14z m1715 -686 c68 -41 63 46 63 -1145
0 -1204 5 -1116 -70 -1156 -33 -18 -93 -19 -1650 -19 -1557 0 -1617 1 -1650
19 -19 10 -44 34 -55 52 -20 33 -20 55 -23 1059 -2 564 0 1049 3 1078 7 55 40
106 79 122 12 5 752 9 1646 9 1594 1 1626 1 1657 -19z"/>
<path d="M2186 2930 c-16 -5 -40 -19 -53 -32 -55 -51 -53 -31 -53 -673 0 -660
-2 -641 64 -688 24 -17 45 -22 96 -22 l65 0 490 284 c270 156 501 293 513 305
58 52 69 150 24 213 -16 22 -169 116 -528 323 -530 306 -545 313 -618 290z
m535 -419 c266 -153 484 -282 486 -287 3 -8 -934 -555 -964 -562 -11 -3 -13
93 -13 562 0 311 2 566 4 566 3 0 222 -125 487 -279z"/>
</g>
</svg>
