<?xml version="1.0" standalone="no"?>
<!DOCTYPE svg PUBLIC "-//W3C//DTD SVG 20010904//EN"
 "http://www.w3.org/TR/2001/REC-SVG-20010904/DTD/svg10.dtd">
<svg version="1.0" xmlns="http://www.w3.org/2000/svg"
 width="512.000000pt" height="512.000000pt" viewBox="0 0 512.000000 512.000000"
 preserveAspectRatio="xMidYMid meet">

<g transform="translate(0.000000,512.000000) scale(0.100000,-0.100000)"
fill="#000000" stroke="none">
<path d="M2640 4080 l0 -960 -80 0 -80 0 0 800 0 800 -240 0 -240 0 0 -800 0
-800 -80 0 -80 0 0 320 0 320 -240 0 -240 0 0 -320 0 -320 -128 0 -127 0 -69
413 c-37 226 -76 430 -86 453 -9 22 -33 52 -51 65 l-34 24 -342 0 c-329 0
-343 -1 -369 -21 -64 -47 -69 -63 -69 -214 0 -151 5 -167 69 -214 26 -20 44
-21 369 -26 l341 -5 202 -1210 c112 -665 202 -1210 201 -1210 -140 -60 -247
-145 -303 -240 -188 -322 -41 -711 316 -831 76 -26 244 -26 320 0 189 64 331
210 377 388 l17 68 168 0 c155 0 168 -1 168 -18 0 -36 42 -143 80 -200 73
-114 176 -193 310 -238 76 -26 244 -26 320 0 226 76 377 264 397 492 19 224
-108 446 -310 543 -262 127 -559 44 -716 -199 -38 -59 -81 -166 -81 -202 0
-17 -13 -18 -168 -18 l-168 0 -17 68 c-23 87 -77 179 -146 249 -90 89 -188
137 -326 157 l-80 12 -7 44 c-4 25 -10 60 -13 78 l-6 32 958 0 958 0 22 -63
c50 -143 152 -285 277 -384 355 -280 854 -250 1171 71 401 406 312 1081 -179
1373 -49 29 -91 53 -96 55 -4 2 6 104 22 228 16 126 27 246 24 274 -7 68 -48
132 -107 169 l-49 30 0 483 0 484 -240 0 -240 0 0 -480 0 -480 -80 0 -80 0 0
640 0 640 -240 0 -240 0 0 -640 0 -640 -80 0 -80 0 0 960 0 960 -240 0 -240 0
0 -960z m320 -80 l0 -880 -80 0 -80 0 0 880 0 880 80 0 80 0 0 -880z m-640
-160 l0 -720 -80 0 -80 0 0 720 0 720 80 0 80 0 0 -720z m1280 -160 l0 -560
-80 0 -80 0 0 560 0 560 80 0 80 0 0 -560z m-2781 177 c6 -35 11 -71 11 -80 0
-16 -26 -17 -295 -17 l-295 0 0 80 0 80 284 0 284 0 11 -63z m3421 -337 l0
-400 -80 0 -80 0 0 400 0 400 80 0 80 0 0 -400z m-2560 -160 l0 -240 -80 0
-80 0 0 240 0 240 80 0 80 0 0 -240z m2695 -425 c26 -25 29 -37 19 -97 l-7
-38 -1613 0 c-1527 0 -1613 1 -1618 18 -2 9 -7 37 -11 62 -4 25 -9 53 -11 63
-5 16 76 17 1606 17 l1611 0 24 -25z m-2685 -302 c0 -11 50 -407 55 -441 l6
-32 -242 2 -243 3 -38 220 c-20 121 -38 228 -38 238 0 16 18 17 250 17 138 0
250 -3 250 -7z m648 -200 c7 -115 12 -223 12 -240 l0 -33 -220 0 c-121 0 -220
3 -220 7 0 11 -50 407 -55 441 l-6 32 239 0 238 0 12 -207z m772 175 c0 -18
-5 -126 -12 -240 l-12 -208 -286 0 -286 0 -12 208 c-7 114 -12 222 -12 240 l0
32 310 0 310 0 0 -32z m637 10 c-3 -13 -11 -73 -18 -135 -7 -62 -15 -116 -18
-120 -3 -4 -41 -34 -83 -66 -42 -32 -93 -76 -112 -98 l-36 -39 -115 0 -115 0
0 33 c0 17 5 125 12 240 l12 207 239 0 239 0 -5 -22z m620 0 c-3 -13 -9 -54
-12 -91 -7 -64 -9 -68 -29 -63 -11 4 -66 9 -121 12 -93 6 -209 -7 -294 -32
l-24 -7 7 69 c3 38 9 84 12 102 l6 32 230 0 230 0 -5 -22z m8 -332 c113 -36
198 -89 290 -181 91 -91 144 -175 182 -290 23 -71 26 -96 26 -215 0 -119 -3
-144 -26 -215 -38 -115 -91 -199 -182 -290 -91 -91 -175 -144 -290 -182 -71
-23 -96 -26 -215 -26 -119 0 -144 3 -215 26 -115 38 -199 91 -290 182 -91 91
-144 175 -182 290 -23 71 -26 96 -26 215 -1 118 3 145 25 212 40 120 92 204
182 293 114 113 237 179 380 205 89 16 251 5 341 -24z m-2605 -293 c0 -11 50
-407 55 -440 l6 -33 -229 0 -229 0 -40 240 -40 240 239 0 c131 0 238 -3 238
-7z m608 -200 c7 -115 12 -223 12 -240 l0 -33 -200 0 c-110 0 -200 3 -200 7 0
11 -50 407 -55 441 l-6 32 219 0 218 0 12 -207z m692 175 c0 -18 -5 -126 -12
-240 l-12 -208 -246 0 -246 0 -12 208 c-7 114 -12 222 -12 240 l0 32 270 0
270 0 0 -32z m300 23 c0 -5 -11 -33 -24 -62 -37 -86 -56 -176 -63 -296 l-6
-113 -33 0 c-41 0 -39 -19 -22 273 l12 207 68 0 c37 0 68 -4 68 -9z m-1766
-989 c91 -42 149 -100 194 -190 35 -72 37 -81 37 -172 0 -91 -2 -100 -37 -172
-45 -91 -103 -147 -196 -191 -61 -29 -76 -32 -162 -32 -86 0 -101 3 -162 32
-93 44 -151 100 -196 191 -35 72 -37 81 -37 171 0 87 3 102 32 163 40 85 97
147 172 186 78 42 122 52 213 48 61 -3 92 -11 142 -34z m1440 0 c91 -42 149
-100 194 -190 35 -72 37 -81 37 -172 0 -91 -2 -100 -37 -172 -45 -91 -103
-147 -196 -191 -61 -29 -76 -32 -162 -32 -86 0 -101 3 -162 32 -93 44 -151
100 -196 191 -35 72 -37 81 -37 171 0 87 3 102 32 163 40 85 97 147 172 186
78 42 122 52 213 48 61 -3 92 -11 142 -34z"/>
<path d="M4080 2080 l0 -80 -80 0 -80 0 0 -136 c0 -170 9 -204 75 -269 51 -52
102 -75 164 -75 52 0 81 -37 81 -105 l0 -55 -55 0 c-78 0 -105 27 -105 105 l0
55 -80 0 -80 0 0 -56 c0 -31 5 -74 12 -96 14 -48 76 -121 118 -138 l30 -12 0
-89 0 -89 80 0 80 0 0 80 0 80 80 0 80 0 0 136 c0 170 -9 204 -75 269 -51 52
-102 75 -164 75 -52 0 -81 37 -81 105 l0 55 55 0 c78 0 105 -27 105 -105 l0
-55 80 0 80 0 0 56 c0 31 -5 74 -12 96 -14 48 -76 121 -118 138 l-30 12 0 89
0 89 -80 0 -80 0 0 -80z"/>
<path d="M1360 867 c-49 -16 -133 -102 -148 -153 -28 -94 -8 -169 63 -239 101
-102 229 -102 330 0 98 97 101 222 8 325 -65 72 -158 97 -253 67z m135 -172
c50 -49 15 -135 -55 -135 -41 0 -80 39 -80 80 0 19 9 40 25 55 15 16 36 25 55
25 19 0 40 -9 55 -25z"/>
<path d="M2800 867 c-49 -16 -133 -102 -148 -153 -28 -94 -8 -169 63 -239 51
-52 102 -75 165 -75 63 0 114 23 165 75 98 97 101 222 8 325 -65 72 -158 97
-253 67z m135 -172 c50 -49 15 -135 -55 -135 -41 0 -80 39 -80 80 0 41 39 80
80 80 19 0 40 -9 55 -25z"/>
</g>
</svg>
