<?xml version="1.0" standalone="no"?>
<!DOCTYPE svg PUBLIC "-//W3C//DTD SVG 20010904//EN"
 "http://www.w3.org/TR/2001/REC-SVG-20010904/DTD/svg10.dtd">
<svg version="1.0" xmlns="http://www.w3.org/2000/svg"
 width="512.000000pt" height="512.000000pt" viewBox="0 0 512.000000 512.000000"
 preserveAspectRatio="xMidYMid meet">

<g transform="translate(0.000000,512.000000) scale(0.100000,-0.100000)"
fill="#000000" stroke="none">
<path d="M4403 4616 c-183 -60 -273 -232 -217 -411 l17 -53 -358 -386 -357
-386 -40 36 c-64 57 -121 79 -208 78 -89 0 -159 -26 -211 -80 -18 -19 -38 -34
-43 -34 -6 0 -185 70 -397 156 l-386 156 -5 72 c-6 91 -35 154 -100 218 -121
118 -315 118 -436 0 -68 -67 -96 -129 -99 -222 l-2 -75 -357 -187 -357 -187
-31 24 c-73 56 -169 74 -258 50 -152 -40 -243 -159 -242 -316 0 -131 89 -253
215 -294 69 -23 177 -17 239 14 61 31 116 85 148 146 24 44 27 62 27 148 l1
98 324 171 c179 93 335 175 347 180 19 9 28 6 60 -22 60 -53 117 -74 203 -74
87 0 145 22 207 78 l40 36 394 -159 394 -160 6 -70 c12 -121 78 -219 184 -272
68 -33 197 -34 267 -2 102 47 175 154 187 274 l6 66 374 405 374 405 60 -25
c76 -31 178 -28 250 7 157 76 228 271 154 422 -32 66 -100 132 -162 160 -58
26 -158 33 -212 15z m157 -169 c48 -25 90 -89 90 -136 0 -37 -40 -111 -72
-135 -16 -11 -49 -21 -80 -24 -44 -3 -59 0 -88 20 -100 68 -109 193 -18 261
56 43 107 47 168 14z m-2600 -559 c57 -39 75 -72 75 -137 0 -73 -33 -121 -99
-146 -53 -20 -99 -15 -146 18 -127 86 -63 287 90 287 32 0 57 -7 80 -22z
m1346 -567 c61 -28 89 -73 89 -143 0 -95 -58 -153 -155 -153 -63 0 -95 16
-134 69 -31 41 -29 130 3 175 26 36 90 71 131 71 14 0 43 -9 66 -19z m-2592
-109 c44 -26 68 -65 74 -120 8 -91 -46 -160 -133 -170 -59 -6 -88 3 -130 39
-66 58 -69 152 -7 221 53 59 126 70 196 30z"/>
<path d="M4046 3479 l-26 -20 0 -1464 0 -1464 26 -20 c26 -20 37 -21 435 -21
278 0 416 4 432 11 14 6 30 22 36 36 17 36 15 2902 -2 2924 -29 38 -47 39
-465 39 -399 0 -410 -1 -436 -21z m754 -1484 l0 -1345 -310 0 -310 0 0 1345 0
1345 310 0 310 0 0 -1345z"/>
<path d="M1453 2690 c-12 -5 -26 -18 -32 -29 -8 -14 -11 -346 -11 -1069 0
-1019 1 -1050 19 -1073 l19 -24 432 0 432 0 19 24 c18 23 19 54 19 1076 0
1022 -1 1053 -19 1076 l-19 24 -419 2 c-230 1 -428 -2 -440 -7z m737 -1095 l0
-945 -310 0 -310 0 0 945 0 945 310 0 310 0 0 -945z"/>
<path d="M2813 1890 c-12 -5 -26 -18 -32 -29 -8 -13 -11 -229 -11 -669 0 -625
1 -651 19 -673 l19 -24 432 0 432 0 19 24 c18 22 19 48 19 676 0 628 -1 654
-19 676 l-19 24 -419 2 c-230 1 -428 -2 -440 -7z m737 -695 l0 -545 -310 0
-310 0 0 545 0 545 310 0 310 0 0 -545z"/>
<path d="M205 1728 c-45 -26 -44 -15 -44 -613 0 -433 3 -574 12 -586 29 -38
47 -39 465 -39 399 0 410 1 436 21 l26 20 0 584 0 584 -26 20 c-26 20 -37 21
-438 21 -290 -1 -417 -4 -431 -12z m735 -613 l0 -465 -310 0 -310 0 0 465 0
465 310 0 310 0 0 -465z"/>
</g>
</svg>
