<?xml version="1.0" standalone="no"?>
<!DOCTYPE svg PUBLIC "-//W3C//DTD SVG 20010904//EN"
 "http://www.w3.org/TR/2001/REC-SVG-20010904/DTD/svg10.dtd">
<svg version="1.0" xmlns="http://www.w3.org/2000/svg"
 width="512.000000pt" height="512.000000pt" viewBox="0 0 512.000000 512.000000"
 preserveAspectRatio="xMidYMid meet">

<g transform="translate(0.000000,512.000000) scale(0.100000,-0.100000)"
fill="#000000" stroke="none">
<path d="M975 4665 c-38 -8 -200 -37 -359 -65 -315 -55 -347 -66 -400 -135
-111 -145 -43 -350 133 -402 l55 -16 391 68 c214 37 404 73 421 80 71 29 154
137 154 201 0 18 9 23 69 33 140 23 199 7 235 -61 10 -21 104 -534 245 -1347
222 -1284 227 -1314 207 -1319 -12 -3 -60 -25 -108 -49 -149 -75 -270 -216
-321 -378 -18 -58 -22 -93 -22 -200 1 -118 4 -137 29 -205 73 -191 221 -338
406 -401 81 -27 243 -37 332 -20 88 17 231 89 301 151 133 120 217 307 217
483 l0 53 968 168 c532 92 979 172 995 178 46 18 45 88 -1 102 -10 4 -459 -70
-997 -164 -538 -94 -980 -168 -983 -165 -3 2 -15 30 -28 60 -15 39 -19 57 -11
60 7 2 395 69 862 150 468 81 866 151 886 156 39 10 49 24 49 67 0 15 -76 461
-169 991 -154 884 -170 966 -190 982 -14 11 -32 17 -45 14 -11 -3 -489 -86
-1061 -186 -856 -148 -1043 -183 -1059 -199 -20 -19 -19 -27 120 -825 l140
-806 -85 7 c-47 4 -88 8 -90 10 -2 2 -107 594 -232 1316 -168 966 -234 1325
-250 1360 -25 54 -57 87 -113 117 -59 30 -110 34 -216 16 -91 -16 -95 -16
-105 2 -23 41 -102 109 -141 121 -52 15 -139 14 -229 -3z m199 -109 c49 -20
80 -69 80 -128 0 -57 -24 -95 -75 -120 -34 -17 -709 -138 -768 -138 -134 0
-185 186 -68 255 27 16 698 142 770 144 15 1 43 -5 61 -13z m3248 -1860 c87
-500 157 -910 156 -912 -2 -1 -396 -71 -876 -154 l-872 -152 -74 69 c-41 38
-101 84 -135 102 -33 18 -61 33 -61 34 -4 15 -277 1582 -276 1583 5 7 650 114
655 109 3 -4 23 -101 43 -217 28 -164 41 -215 56 -231 20 -19 21 -19 314 31
258 45 295 54 311 74 12 14 17 32 13 48 -23 117 -69 410 -65 414 7 7 610 114
634 112 18 -1 32 -71 177 -910z m-923 732 c35 -179 54 -310 44 -316 -6 -4
-102 -22 -213 -41 -148 -25 -204 -31 -209 -23 -12 19 -64 343 -56 350 4 4 97
23 208 43 111 20 205 37 209 38 4 0 11 -23 17 -51z m-1022 -1843 c138 -47 249
-142 310 -266 41 -83 52 -135 53 -240 0 -228 -140 -425 -357 -500 -367 -126
-750 191 -695 575 30 207 187 385 389 441 84 23 214 19 300 -10z"/>
<path d="M4065 2079 c-148 -26 -273 -48 -278 -49 -4 0 -12 -11 -18 -24 -9 -18
-7 -48 5 -122 9 -55 19 -107 22 -117 12 -40 33 -39 329 13 158 28 295 55 306
60 24 13 24 45 3 165 -17 98 -33 126 -73 124 -14 -1 -147 -23 -296 -50z m263
-144 c-4 -4 -401 -75 -422 -75 -8 0 -15 14 -18 35 -4 32 -2 35 27 41 16 3 113
20 215 38 l185 32 9 -34 c4 -18 7 -35 4 -37z"/>
<path d="M2229 1346 c-204 -73 -259 -322 -104 -465 59 -55 107 -74 185 -74
168 -1 291 131 278 297 -6 74 -26 117 -81 174 -70 72 -187 101 -278 68z m166
-125 c37 -21 72 -72 81 -118 9 -48 -20 -117 -63 -150 -50 -39 -135 -44 -182
-11 -51 34 -73 71 -79 126 -12 133 125 220 243 153z"/>
</g>
</svg>
