<?xml version="1.0" encoding="UTF-8"?>
<svg version="1.1" xmlns="http://www.w3.org/2000/svg" width="512" height="512">
<path d="M0 0 C2.79961955 1.74461586 5.0449482 3.61916695 7.375 5.94921875 C10.090801 6.2722769 10.090801 6.2722769 13.2734375 6.2578125 C14.47613281 6.28294922 15.67882812 6.30808594 16.91796875 6.33398438 C19.43354966 6.36860246 21.94917799 6.39995889 24.46484375 6.42773438 C40.32313583 6.77247985 54.68847541 10.74700058 66.375 21.94921875 C76.67864503 34.02809214 80.74321087 45.96300407 80.5703125 61.671875 C80.5674826 62.65796249 80.56465271 63.64404999 80.56173706 64.66001892 C80.55063505 67.77738112 80.52554945 70.89444492 80.5 74.01171875 C80.48995729 76.1386677 80.48083371 78.26562119 80.47265625 80.39257812 C80.45072848 85.57823815 80.41626846 90.76367804 80.375 95.94921875 C81.57125 95.47484375 82.7675 95.00046875 84 94.51171875 C90.45647844 91.95139109 96.80128049 91.80316372 103.64703369 91.81550598 C104.57207097 91.81324042 105.49710824 91.81097487 106.45017695 91.80864066 C109.54524791 91.80231807 112.64027487 91.80312891 115.73535156 91.80395508 C117.95643673 91.80096248 120.17752138 91.79755972 122.39860535 91.79377747 C128.42972366 91.78494299 134.46082778 91.78259957 140.49195194 91.78196168 C144.26136739 91.7812508 148.03077923 91.77911576 151.80019379 91.77646446 C164.27570909 91.76768995 176.75121633 91.76304452 189.22673407 91.76379494 C189.89876241 91.76383489 190.57079076 91.76387485 191.26318359 91.76391602 C191.93603703 91.7639569 192.60889047 91.76399778 193.30213341 91.7640399 C204.20080804 91.76444614 215.09944808 91.75488125 225.99811271 91.74077765 C237.20129462 91.72639495 248.40446389 91.71969143 259.60765624 91.72037143 C265.89232541 91.72062618 272.17695545 91.71778734 278.46161652 91.70719337 C284.37462085 91.69749811 290.28754874 91.69744307 296.2005558 91.70471001 C298.36686375 91.7057541 300.5331765 91.70340338 302.69947624 91.69734955 C305.66475059 91.6896018 308.6297628 91.69429288 311.59503174 91.70198059 C312.44505587 91.69683703 313.29508 91.69169346 314.17086244 91.68639404 C325.71063469 91.75215975 335.47421463 94.21461725 344.125 102.13671875 C349.72381578 108.07406757 353.49202873 115.89092769 353.50642776 124.10476303 C353.51026891 124.92987499 353.51411005 125.75498695 353.5180676 126.6051023 C353.51720112 127.50625777 353.51633463 128.40741325 353.51544189 129.33587646 C353.51989858 130.77811376 353.51989858 130.77811376 353.5244453 132.24948716 C353.53313518 135.4798101 353.53464079 138.71009598 353.53613281 141.94042969 C353.54076078 144.25313395 353.54578541 146.56583744 353.55117798 148.87854004 C353.56430599 155.16789566 353.57074772 161.4572406 353.57518864 167.74660778 C353.57811869 171.67513104 353.58222337 175.60365137 353.58669281 179.53217316 C353.59880169 190.413109 353.60918375 201.29404163 353.6125679 212.17498398 C353.61278747 212.87118725 353.61300703 213.56739053 353.61323325 214.28469087 C353.61345153 214.98254252 353.61366981 215.68039417 353.6138947 216.39939284 C353.61433816 217.81346242 353.61478473 219.22753199 353.61523438 220.64160156 C353.6154558 221.34302616 353.61567723 222.04445076 353.61590537 222.76713064 C353.61985238 234.12965498 353.63730395 245.49211515 353.6605939 256.8546147 C353.68432258 268.5255517 353.69651259 280.19645335 353.69793582 291.86741471 C353.69898436 298.41811463 353.7049027 304.96872403 353.72275543 311.51940155 C353.73922339 317.6819126 353.7413977 323.84426497 353.73261642 330.00679016 C353.73184537 332.267468 353.73619767 334.52815433 353.74607468 336.78881073 C353.75877744 339.87760505 353.75292611 342.96583597 353.74249268 346.05462646 C353.75457728 347.39297535 353.75457728 347.39297535 353.76690602 348.75836158 C353.72181631 354.4754003 352.66678136 358.70230343 350.375 363.94921875 C351.00632371 363.95828058 351.63764742 363.96734241 352.28810215 363.97667885 C358.17935038 364.06171024 364.07027054 364.16085726 369.96118164 364.26660156 C372.17922628 364.30473506 374.39732946 364.33961436 376.61547852 364.37109375 C379.81547889 364.41708522 383.01508158 364.47502204 386.21484375 364.53515625 C387.68726784 364.55248306 387.68726784 364.55248306 389.18943787 364.57015991 C398.88617271 364.77506476 407.1025035 365.64335202 414.2265625 372.8125 C420.79030743 379.98399909 421.94967538 385.59351349 421.68359375 395.28125 C421.05221677 402.78584479 417.63314164 407.40516269 412.23828125 412.4765625 C406.87447924 416.71587772 400.44445295 418.07552231 393.71486187 418.07226658 C392.80270717 418.07425763 391.89055248 418.07624868 390.95075673 418.07830006 C389.95756533 418.07538722 388.96437393 418.07247438 387.94108582 418.06947327 C386.87917363 418.07032769 385.81726144 418.07118212 384.7231701 418.07206243 C381.1594238 418.07371157 377.5957244 418.06820507 374.03198242 418.06274414 C371.47955323 418.06246212 368.92712396 418.06262029 366.37469482 418.06318665 C360.87665903 418.06341448 355.37863838 418.0605752 349.8806057 418.05494881 C341.93139073 418.04681931 333.98218151 418.0442171 326.03296284 418.04296082 C313.13566012 418.04077258 300.23836373 418.03411867 287.34106445 418.0246582 C274.81306998 418.01547819 262.28507723 418.00840023 249.75708008 418.00415039 C248.98476184 418.00388767 248.2124436 418.00362494 247.41672178 418.00335426 C243.54220051 418.00204921 239.66767923 418.00078551 235.79315794 417.99954236 C203.65376736 417.98917685 171.51438456 417.97156473 139.375 417.94921875 C139.39554443 419.56860352 139.39554443 419.56860352 139.41650391 421.22070312 C139.16324032 443.97271194 125.18304966 467.11971499 109.67578125 482.8203125 C104.95340219 487.40392051 99.84739121 491.28832546 94.375 494.94921875 C93.56804687 495.49964844 92.76109375 496.05007813 91.9296875 496.6171875 C69.57527589 510.96680155 40.84400873 514.95095115 14.98339844 509.81542969 C11.70426679 509.02812505 8.5688763 508.0421286 5.375 506.94921875 C4.4166626 506.62775879 4.4166626 506.62775879 3.43896484 506.29980469 C-10.59064311 501.49385073 -22.548661 493.75621278 -33.625 483.94921875 C-34.68654297 483.01335937 -34.68654297 483.01335937 -35.76953125 482.05859375 C-53.64465721 465.27642421 -64.85631957 438.65510066 -65.84375 414.359375 C-66.55558503 386.74823418 -58.73052576 362.06597932 -40.625 340.94921875 C-39.90763672 340.03269531 -39.90763672 340.03269531 -39.17578125 339.09765625 C-25.35139807 321.7478573 -2.98862606 311.27069913 18.375 306.94921875 C21.675 306.61921875 24.975 306.28921875 28.375 305.94921875 C28.375 224.43921875 28.375 142.92921875 28.375 58.94921875 C8.50055779 57.74195607 8.50055779 57.74195607 0.375 65.94921875 C-5.5403471 68.56562228 -11.39074703 68.26565226 -17.625 66.94921875 C-20.65938876 65.32365334 -22.77877145 63.93216946 -25.01170349 61.33847046 C-27.09759036 59.54225886 -28.2117596 59.58197173 -30.93774414 59.59619141 C-31.80617447 59.59253571 -32.6746048 59.58888 -33.5693512 59.58511353 C-34.50681686 59.59440887 -35.44428253 59.60370422 -36.41015625 59.61328125 C-38.40560215 59.60075842 -40.40104487 59.58772084 -42.39648438 59.57421875 C-45.53421484 59.57030484 -48.67162668 59.57414427 -51.80932617 59.58886719 C-54.84340975 59.59750515 -57.87618727 59.57562974 -60.91015625 59.55078125 C-62.29510033 59.57079697 -62.29510033 59.57079697 -63.70802307 59.59121704 C-71.61561246 59.50277216 -78.00246992 57.01443651 -84.0625 51.88671875 C-84.578125 51.24734375 -85.09375 50.60796875 -85.625 49.94921875 C-86.429375 48.99015625 -86.429375 48.99015625 -87.25 48.01171875 C-91.75701766 41.25119226 -91.39430548 33.7544639 -90.625 25.94921875 C-88.64607445 19.18200012 -84.7590857 13.54892901 -78.625 9.94921875 C-72.33898845 7.14924195 -67.26517017 6.54286584 -60.4296875 6.61328125 C-58.4778612 6.60077736 -56.52603826 6.58774064 -54.57421875 6.57421875 C-51.52836301 6.57028163 -48.48283656 6.57430083 -45.43701172 6.58886719 C-42.47574283 6.59744367 -39.5158363 6.57575884 -36.5546875 6.55078125 C-35.64830536 6.56412506 -34.74192322 6.57746887 -33.80807495 6.59121704 C-27.61649539 6.51905989 -24.97594404 5.37192831 -20.625 0.94921875 C-15.02071687 -2.73839955 -6.05218526 -2.42267535 0 0 Z M-11.625 16.94921875 C-14.08205696 19.54909078 -14.08205696 19.54909078 -14.625 22.94921875 C-17.65288326 23.82810143 -20.3495556 24.07347243 -23.49780273 24.07519531 C-24.462379 24.07900208 -25.42695526 24.08280884 -26.42076111 24.08673096 C-27.45624588 24.08775818 -28.49173065 24.0887854 -29.55859375 24.08984375 C-31.75586979 24.10816533 -33.95313572 24.12773503 -36.15039062 24.1484375 C-39.6112586 24.17744811 -43.07147305 24.19922001 -46.5324707 24.19970703 C-49.87510031 24.20303753 -53.21622509 24.23755645 -56.55859375 24.27734375 C-57.59205429 24.27027405 -58.62551483 24.26320435 -59.69029236 24.25592041 C-64.44998357 24.33665821 -66.85907552 24.38573369 -70.77758789 27.26855469 C-73.21679456 30.8079348 -73.39044777 32.73925601 -72.625 36.94921875 C-70.44884171 39.52320957 -68.68161481 40.78992048 -65.31274414 41.29782104 C-62.39927981 41.42633081 -59.50976511 41.42372758 -56.59375 41.3828125 C-54.39973887 41.39241631 -52.20572846 41.40218703 -50.01171875 41.41210938 C-46.56192961 41.40350089 -43.1123259 41.38663743 -39.66259766 41.36450195 C-36.32677667 41.34999425 -32.99203256 41.36522448 -29.65625 41.3828125 C-28.11076477 41.3580912 -28.11076477 41.3580912 -26.53405762 41.33287048 C-19.32930631 41.38316051 -19.32930631 41.38316051 -15.61132812 44.37133789 C-14.95583984 45.22203857 -14.30035156 46.07273926 -13.625 46.94921875 C-11.99122358 48.00209689 -10.33318403 49.02191885 -8.625 49.94921875 C-7.01527843 48.84300946 -7.01527843 48.84300946 -5.625 46.94921875 C-5.17728807 43.98060796 -5.17728807 43.98060796 -5.26171875 40.6015625 C-5.26236328 39.35697266 -5.26300781 38.11238281 -5.26367188 36.83007812 C-5.27978516 35.52876953 -5.29589844 34.22746094 -5.3125 32.88671875 C-5.30766602 30.92895508 -5.30766602 30.92895508 -5.30273438 28.93164062 C-4.82328583 22.34473947 -4.82328583 22.34473947 -7.625 16.94921875 C-8.945 16.94921875 -10.265 16.94921875 -11.625 16.94921875 Z M12.375 24.94921875 C12.375 30.22921875 12.375 35.50921875 12.375 40.94921875 C13.7259375 40.975 15.076875 41.00078125 16.46875 41.02734375 C18.27086409 41.08365982 20.07294617 41.14100634 21.875 41.19921875 C23.2053125 41.22048828 23.2053125 41.22048828 24.5625 41.2421875 C31.93707436 41.51331156 37.63168634 43.06522233 42.8125 48.51171875 C44.94824042 51.84347381 45.50019799 54.38115469 45.5136652 58.25393963 C45.51913964 59.13772846 45.52461409 60.02151729 45.53025442 60.9320876 C45.53123253 61.90386805 45.53221064 62.87564849 45.53321838 63.87687683 C45.54062535 65.42430454 45.54062535 65.42430454 45.54818195 67.0029934 C45.56359817 70.47619641 45.57192874 73.94938086 45.58032227 77.42260742 C45.58989755 79.90577865 45.59990742 82.38894824 45.61032104 84.87211609 C45.63179461 90.22666572 45.65023154 95.58121274 45.66592598 100.93578148 C45.68862282 108.67762099 45.71676591 116.41943313 45.74624526 124.16124944 C45.79392344 136.72133846 45.83718702 149.28143866 45.87768555 161.84155273 C45.91703932 174.04371003 45.95846526 186.24585738 46.00268555 198.44799805 C46.00540982 199.19993276 46.00813409 199.95186748 46.01094092 200.72658809 C46.02462038 204.49876227 46.03834065 208.2709363 46.05208123 212.04311025 C46.16604956 243.34512591 46.27278477 274.6471624 46.375 305.94921875 C54.295 307.43421875 54.295 307.43421875 62.375 308.94921875 C62.46632098 276.52359194 62.53707508 244.0980023 62.57926132 211.67227618 C62.58426393 207.84100617 62.58944124 204.00973642 62.59472656 200.1784668 C62.59630043 199.03439885 62.59630043 199.03439885 62.59790608 197.86721841 C62.6152943 185.53001091 62.64682322 173.19287823 62.68361118 160.85571506 C62.72106476 148.18935761 62.74324517 135.52303926 62.75135398 122.85662872 C62.75683262 115.04561593 62.77411381 107.23481467 62.80666587 99.42386702 C62.83038084 93.42659283 62.83280873 87.42949922 62.82743073 81.43217278 C62.828529 78.97763011 62.83645662 76.52307926 62.8518219 74.06858444 C62.87181714 70.70902173 62.86690371 67.35035322 62.85601807 63.99076843 C62.87349512 62.54470617 62.87349512 62.54470617 62.89132524 61.06943053 C62.81087956 51.84071848 60.15377669 43.04063766 54.26953125 35.80078125 C45.87085137 27.5925869 36.66746065 24.69329464 25.20703125 24.7734375 C24.27246094 24.79019531 23.33789062 24.80695312 22.375 24.82421875 C21.40949219 24.83324219 20.44398437 24.84226562 19.44921875 24.8515625 C17.09103674 24.87491084 14.7329842 24.91077336 12.375 24.94921875 Z M84.5 115.82421875 C80.88834088 121.13548217 80.07228635 125.39011949 80.03355408 131.74102783 C80.02126174 132.51890836 80.0089694 133.2967889 79.99630457 134.09824157 C79.95793043 136.70120435 79.9337865 139.30409327 79.90991211 141.90722656 C79.885916 143.77511917 79.86126695 145.64300348 79.83601379 147.51087952 C79.75784 153.64123994 79.70235895 159.77169571 79.65234375 165.90234375 C79.64380347 166.94606486 79.6352632 167.98978598 79.62646413 169.065135 C79.54801168 178.9111723 79.48040576 188.75724824 79.43355465 198.60348892 C79.37271105 211.1891765 79.26231233 223.77231072 79.08556932 236.35691762 C78.96542474 245.21140803 78.9027804 254.06520408 78.88233191 262.92047954 C78.86851859 268.20765008 78.82928362 273.49177554 78.72791862 278.77805328 C78.63366299 283.75335805 78.61075143 288.72398913 78.64179802 293.70004082 C78.64086715 295.52188336 78.61438855 297.34392625 78.56000137 299.16495705 C78.00772826 308.48186446 78.00772826 308.48186446 81.84661412 316.54064465 C85.45633327 319.36851319 89.39076914 321.27665848 93.57781613 323.09630156 C110.56573789 331.15852089 121.48302619 349.36862275 130.375 364.94921875 C155.56579723 365.04263465 180.75656853 365.11318456 205.94750404 365.15646744 C217.64393527 365.17709805 229.34025892 365.2052283 241.03662109 365.25097656 C251.23044003 365.29082891 261.42418106 365.31664793 271.61807573 365.32557273 C277.01635213 365.33079016 282.41440562 365.34306361 287.81261063 365.37213898 C292.89331477 365.39928262 297.97370411 365.4076658 303.05447388 365.40164948 C304.91931239 365.40275018 306.7841614 365.41071026 308.64893723 365.42604065 C311.19583895 365.44595229 313.74155328 365.44115397 316.28848267 365.43023682 C317.39453305 365.44771387 317.39453305 365.44771387 318.52292788 365.46554399 C323.6076777 365.40666008 326.44588915 364.12048705 330.375 360.94921875 C335.35245561 355.43365983 335.52250113 351.08350354 335.51544189 343.8971405 C335.51841302 342.95959358 335.52138414 342.02204666 335.5244453 341.05608922 C335.53314691 337.90090927 335.53464178 334.74576719 335.53613281 331.59057617 C335.54075993 329.33388691 335.54578445 327.07719843 335.55117798 324.82051086 C335.56431377 318.67998591 335.57074918 312.53947189 335.57518864 306.39893508 C335.57811732 302.56474074 335.58222173 298.73054941 335.58669281 294.89635658 C335.59880286 284.2805287 335.60918464 273.66470344 335.6125679 263.04886913 C335.61278747 262.36943328 335.61300703 261.68999743 335.61323325 260.98997261 C335.61345153 260.30891163 335.61366981 259.62785065 335.6138947 258.92615145 C335.61433817 257.54606386 335.61478473 256.16597627 335.61523438 254.78588867 C335.6154558 254.10131764 335.61567723 253.41674661 335.61590537 252.711431 C335.61985334 241.61908536 335.63730739 230.52680542 335.6605939 219.43448516 C335.68430898 208.04609125 335.69651184 196.6577414 335.69793582 185.2693184 C335.69898519 178.87516227 335.70492121 172.48109879 335.72275543 166.08696556 C335.7392026 160.07303321 335.74140788 154.05926349 335.73261642 148.0453167 C335.73184427 145.83701391 335.7362122 143.6287025 335.74607468 141.4204216 C335.75874248 138.40750209 335.75294529 135.39516308 335.74249268 132.38224792 C335.75054908 131.50685322 335.75860548 130.63145852 335.76690602 129.72953671 C335.72620522 124.71885133 335.15257789 121.28883203 332.375 116.94921875 C325.50208393 110.22903415 319.31811398 109.65246179 310.1640625 109.75390625 C308.71185806 109.75815109 308.71185806 109.75815109 307.23031616 109.76248169 C304.15341572 109.77363179 301.07681172 109.79872695 298 109.82421875 C295.9075563 109.83425523 293.81510802 109.84337991 291.72265625 109.8515625 C286.60665749 109.87355422 281.49087892 109.9080485 276.375 109.94921875 C276.37135437 111.17395401 276.36770874 112.39868927 276.36395264 113.66053772 C276.32698819 125.2106898 276.26919932 136.76057563 276.19109726 148.31052494 C276.15161268 154.24828753 276.11942882 160.18590159 276.10400391 166.1237793 C276.08884407 171.85573603 276.05440973 177.58728446 276.00669098 183.31905937 C275.99187038 185.50424078 275.9839586 187.68948048 275.98311615 189.87471199 C275.98074687 192.93913265 275.95366911 196.00242463 275.92089844 199.06665039 C275.92844398 200.41748466 275.92844398 200.41748466 275.93614197 201.79560852 C275.83912092 207.67164971 274.79875605 211.13297864 271.375 215.94921875 C266.36489877 219.93685034 262.44326376 220.39198836 256.12109375 220.3828125 C249.5127458 219.33938914 244.37691598 214.94631629 239.125 211.07421875 C237.53387015 209.91404058 235.94272381 208.75388503 234.3515625 207.59375 C232.69269264 206.37892768 231.03383868 205.16408365 229.375 203.94921875 C226.08700167 201.54830688 222.79442883 199.15379582 219.5 196.76171875 C218.36836426 195.93341553 218.36836426 195.93341553 217.21386719 195.08837891 C216.50649414 194.57452637 215.79912109 194.06067383 215.0703125 193.53125 C214.45172363 193.07983643 213.83313477 192.62842285 213.19580078 192.16333008 C211.31977029 190.91239153 209.41075361 189.91427722 207.375 188.94921875 C206.87274902 189.32095215 206.37049805 189.69268555 205.85302734 190.07568359 C184.76382238 205.67506133 184.76382238 205.67506133 177.5078125 210.75 C175.47973715 212.17369878 173.47257688 213.62787028 171.4921875 215.1171875 C165.68282217 219.26318754 161.30911582 220.92397022 154.109375 220.4296875 C149.83216037 219.67811979 147.75674543 218.76733994 144.375 215.94921875 C140.38993164 210.23949956 139.79055321 204.84679552 139.82910156 198.04492188 C139.81876389 197.08790375 139.80842621 196.13088562 139.79777527 195.14486694 C139.76846427 192.00656008 139.76685055 188.86890144 139.765625 185.73046875 C139.75063549 183.544706 139.73390673 181.35895455 139.71551514 179.17321777 C139.6719163 173.43908147 139.65185894 167.70509796 139.63677979 161.9708252 C139.61718189 156.11196894 139.57521483 150.25327702 139.53515625 144.39453125 C139.45993489 132.9128112 139.40959443 121.43112808 139.375 109.94921875 C133.25523503 109.87474582 127.13573722 109.82046406 121.015625 109.78442383 C118.93615113 109.76939032 116.85670869 109.74895801 114.77734375 109.72290039 C111.77856666 109.68627739 108.78021089 109.66943764 105.78125 109.65625 C104.86009399 109.64076614 103.93893799 109.62528229 102.98986816 109.60932922 C96.04074212 109.60754051 89.36597731 110.31203728 84.5 115.82421875 Z M157.375 109.94921875 C157.375 140.63921875 157.375 171.32921875 157.375 202.94921875 C163.27567482 199.01543553 169.08601287 195.05591232 174.8125 190.88671875 C175.57240234 190.3359668 176.33230469 189.78521484 177.11523438 189.21777344 C179.53624637 187.46308591 181.95572285 185.70629724 184.375 183.94921875 C187.70691771 181.53059265 191.04052953 179.11432374 194.375 176.69921875 C195.14642334 176.138396 195.91784668 175.57757324 196.71264648 174.99975586 C197.42622314 174.48292236 198.1397998 173.96608887 198.875 173.43359375 C199.5040625 172.97694336 200.133125 172.52029297 200.78125 172.04980469 C203.53416154 170.14874384 205.82100302 169.41846624 209.20703125 169.48828125 C216.99045343 171.14313498 223.99517001 178.1035593 230.09594727 182.88842773 C236.76589548 188.09886438 243.72460997 192.90236622 250.66845703 197.73779297 C252.05402876 198.7213705 253.40578908 199.75245307 254.74609375 200.796875 C256.31457314 202.14172821 256.31457314 202.14172821 258.375 201.94921875 C258.375 171.58921875 258.375 141.22921875 258.375 109.94921875 C225.045 109.94921875 191.715 109.94921875 157.375 109.94921875 Z M-16.625 342.94921875 C-17.2953125 343.45582031 -17.965625 343.96242188 -18.65625 344.484375 C-34.88258685 357.58778591 -44.15238955 377.77372511 -47.375 398.01171875 C-49.05064881 424.40318758 -42.16278787 446.73787128 -24.8125 466.76171875 C-9.1878023 483.10534426 11.63504985 492.73573434 34.23730469 493.41723633 C49.49111249 493.57271787 62.75810989 491.14152272 76.375 483.94921875 C77.32632813 483.4696875 78.27765625 482.99015625 79.2578125 482.49609375 C99.43665068 471.64272387 112.70356162 453.15641946 119.43359375 431.55078125 C125.00562404 410.38239824 122.77777774 388.14227106 112.66015625 368.64453125 C99.89250209 346.86902292 81.5058966 332.66764725 57.2421875 325.640625 C30.73135032 319.2476847 4.52637439 326.35765152 -16.625 342.94921875 Z M137.375 382.94921875 C138.035 388.55921875 138.695 394.16921875 139.375 399.94921875 C172.03016072 400.01763596 204.68530081 400.07073714 237.34051682 400.10241474 C241.19454063 400.10616692 245.04856429 400.11004988 248.90258789 400.11401367 C250.05350256 400.11519407 250.05350256 400.11519407 251.22766802 400.11639831 C263.65620939 400.1294572 276.08470918 400.1531137 288.51322588 400.18067714 C301.26317734 400.20871791 314.01310701 400.22539219 326.76308805 400.23148423 C334.63242524 400.23560344 342.50164494 400.24862013 350.37094597 400.27296815 C356.40208497 400.29067982 362.4331226 400.29258774 368.46429062 400.28854179 C370.94069836 400.28936905 373.41711044 400.29536178 375.89349174 400.30683517 C379.26816442 400.32170724 382.64232974 400.31819134 386.01701355 400.3099823 C387.00242305 400.31872082 387.98783256 400.32745935 389.00310296 400.33646268 C395.2575856 400.29519066 398.82827829 399.49594046 403.375 394.94921875 C403.81305091 391.00676058 404.01975483 388.82424316 401.625 385.57421875 C398.15801613 383.07028596 395.05656043 382.82413061 390.85352707 382.82617092 C389.94684682 382.82417987 389.04016656 382.82218882 388.10601115 382.82013744 C386.61769121 382.8245067 386.61769121 382.8245067 385.0993042 382.82896423 C383.51384289 382.8276826 383.51384289 382.8276826 381.89635205 382.82637507 C378.3433192 382.82472377 374.79033322 382.83023597 371.23730469 382.83569336 C368.69487509 382.83597533 366.15244542 382.8358173 363.61001587 382.83525085 C358.13051504 382.8350229 352.65102939 382.8378652 347.17153168 382.84348869 C339.2490898 382.85161403 331.32665368 382.85421998 323.40420809 382.85547668 C310.5507188 382.85766557 297.69723585 382.86432125 284.84375 382.8737793 C272.3574222 382.88295762 259.87109612 382.8900364 247.38476562 382.89428711 C246.23037468 382.89468119 246.23037468 382.89468119 245.0526627 382.89508324 C241.19185487 382.89638827 237.33104702 382.89765198 233.47023916 382.89889514 C201.43848812 382.90926268 169.40674505 382.92695089 137.375 382.94921875 Z " fill="#000000" transform="translate(90.625,1.05078125)"/>
<path d="M0 0 C10.97894921 9.03638632 18.29038505 21.54206213 19.7800293 35.76391602 C20.93693383 50.81443686 17.09025043 64.14005984 7.58984375 76.01171875 C-1.54070122 85.86840426 -13.65948865 92.58995395 -27.26171875 93.3359375 C-43.59063045 93.66850934 -56.8392317 89.77008053 -69.125 78.625 C-77.47634672 69.89165162 -83.12492039 58.0955449 -84 46 C-84.06832031 45.28070313 -84.13664062 44.56140625 -84.20703125 43.8203125 C-84.89995031 29.80794924 -79.69990581 17.24953615 -70.75 6.75 C-51.65785325 -13.36380009 -22.78598319 -15.57215594 0 0 Z M-59 21 C-64.77072015 29.6091638 -67.18996369 38.35799949 -65.375 48.625 C-62.75449401 58.29673593 -56.93759197 66.44950959 -48.30859375 71.609375 C-39.63439683 75.72124465 -31.08574835 76.53428396 -21.76171875 74.18359375 C-12.23651881 70.70998208 -5.54271663 64.68454884 -1 55.625 C2.36792108 47.28094639 3.19431717 38.51817913 0 30 C-4.30119163 20.7001262 -10.73322873 13.44765358 -20.3125 9.5 C-35.25912837 4.83048151 -48.91805755 9.19073175 -59 21 Z " fill="#000000" transform="translate(160,368)"/>
<path d="M0 0 C2.99683139 2.01181709 5.46871507 4.43858072 8 7 C8.6084375 7.57492187 9.216875 8.14984375 9.84375 8.7421875 C12.75913775 11.7263344 14.38916428 13.94245706 14.625 18.1875 C14 22 14 22 12.1875 24.4375 C10 26 10 26 7 27 C6.98018066 27.55461914 6.96036133 28.10923828 6.93994141 28.68066406 C6.84442349 31.20423693 6.73485433 33.72701224 6.625 36.25 C6.57859375 37.55904297 6.57859375 37.55904297 6.53125 38.89453125 C6.49257813 39.73886719 6.45390625 40.58320313 6.4140625 41.453125 C6.3826416 42.22817383 6.3512207 43.00322266 6.31884766 43.80175781 C5.96017912 46.27453842 5.33201955 47.88914935 4 50 C0.83181244 52.11212504 -1.13219252 52.33156464 -4.8671875 52.55859375 C-8.48788828 51.61031497 -9.81612856 50.00989535 -12 47 C-12.60032303 43.53890118 -12.47324336 40.18675936 -12.3125 36.6875 C-12.28994141 35.75615234 -12.26738281 34.82480469 -12.24414062 33.86523438 C-12.18542078 31.5751604 -12.10336858 29.28842125 -12 27 C-12.95003906 26.71511719 -13.90007812 26.43023437 -14.87890625 26.13671875 C-18 25 -18 25 -19.9375 22.8125 C-21.41079967 18.91258911 -21.2221419 17.00590957 -20 13 C-15.27434286 6.25267136 -8.85423659 -1.31173875 0 0 Z " fill="#000000" transform="translate(336,281)"/>
<path d="M0 0 C2.95883767 2.03935823 5.44393604 4.48458914 8 7 C8.59683594 7.52464844 9.19367188 8.04929687 9.80859375 8.58984375 C12.36721186 10.90303086 13.90499021 12.73173705 15.0625 16 C14.9824114 19.84425291 14.21529987 21.85570341 12 25 C8.87890625 26.171875 8.87890625 26.171875 6 27 C6.02618408 27.57967529 6.05236816 28.15935059 6.0793457 28.7565918 C6.18370612 31.39994875 6.24844327 34.04287199 6.3125 36.6875 C6.35439453 37.59951172 6.39628906 38.51152344 6.43945312 39.45117188 C6.52343791 44.0703351 6.52614231 46.28006345 3.73046875 50.10546875 C0.01171481 52.68572006 0.01171481 52.68572006 -3 52.625 C-3.639375 52.63789063 -4.27875 52.65078125 -4.9375 52.6640625 C-8.44294443 51.53541562 -9.83108758 49.96778895 -12 47 C-12.60121695 43.53912015 -12.47323877 40.18665934 -12.3125 36.6875 C-12.28994141 35.75615234 -12.26738281 34.82480469 -12.24414062 33.86523438 C-12.18542078 31.5751604 -12.10336858 29.28842125 -12 27 C-12.95003906 26.72671875 -13.90007812 26.4534375 -14.87890625 26.171875 C-18 25 -18 25 -19.9375 22.25 C-21.18740828 18.42675113 -21.12977574 16.84594492 -20 13 C-18.252023 10.64162407 -16.20519073 8.68585151 -14.0625 6.6875 C-13.23588867 5.8821582 -13.23588867 5.8821582 -12.39257812 5.06054688 C-8.18806747 1.00929906 -5.95237763 -0.88183372 0 0 Z " fill="#000000" transform="translate(387,281)"/>
</svg>
