<svg width="37" height="35" viewBox="0 0 37 35" fill="none" xmlns="http://www.w3.org/2000/svg">
<path d="M7.13747 0.0811043C3.82306 0.499504 1.07472 2.96891 0.180488 6.34075C0 6.99707 0 7.0709 0 14.3068C0 21.592 0 21.6084 0.180488 22.2647C1.07472 25.5135 3.5031 27.8106 6.68625 28.4095C7.21951 28.5161 7.96607 28.5407 10.255 28.5407C12.0106 28.5407 13.2412 28.5736 13.3807 28.6228C13.5612 28.6884 14.1355 29.3858 15.7024 31.4532C17.9339 34.3902 18.057 34.5132 18.6477 34.4148C18.8282 34.3902 19.0497 34.2671 19.2055 34.103C19.3532 33.9554 20.3459 32.692 21.4124 31.2891C22.4789 29.8862 23.4142 28.7048 23.488 28.6638C23.5701 28.6146 24.9647 28.5654 26.9501 28.5325L30.2727 28.4915L31.0111 28.2618C33.9235 27.3758 35.9663 25.292 36.7785 22.4042L37 21.6084V14.3068C37 7.0709 37 6.99707 36.8195 6.34075C36.3847 4.70815 35.6217 3.40372 34.4321 2.27977C33.1113 1.02456 31.5608 0.294407 29.7395 0.0728989C28.8863 -0.0255508 7.98248 -0.0255508 7.13747 0.0811043ZM30.0512 2.25516C30.4368 2.32899 31.0193 2.5423 31.5361 2.78842C32.2499 3.14119 32.4878 3.30527 33.0621 3.87135C34.1942 4.99529 34.7521 6.18487 34.9162 7.80926C34.9654 8.35893 34.99 10.9432 34.9736 14.9303C34.9408 21.0669 34.9408 21.2146 34.7603 21.8381C34.1614 24.0039 32.5698 25.6037 30.3794 26.2518C29.8215 26.4241 29.5508 26.4405 26.4169 26.4815C22.0441 26.5472 22.5528 26.3011 20.1654 29.4514C19.2794 30.6164 18.5328 31.5762 18.5 31.5762C18.4672 31.5762 17.7206 30.6164 16.8346 29.4514C15.2184 27.3183 15.0051 27.0886 14.316 26.7277C13.9468 26.5308 13.914 26.5308 10.5831 26.4815C7.44922 26.4405 7.17849 26.4241 6.62062 26.2518C4.43836 25.6037 2.83858 23.9957 2.23969 21.8381C2.0592 21.2146 2.0592 21.0669 2.02639 14.9303C2.00177 8.25228 2.03459 7.42367 2.37095 6.35715C3.00266 4.35538 4.83215 2.69818 6.89135 2.26336C7.77738 2.07467 29.116 2.06647 30.0512 2.25516Z" fill="white"/>
<path d="M10.5006 12.2395C9.86073 12.4856 9.37669 12.9614 9.15519 13.5521C9.10596 13.6834 9.06494 14.0115 9.06494 14.2905C9.06494 15.9559 10.8042 16.9814 12.2727 16.1856C13.4787 15.5293 13.7658 13.9295 12.8634 12.8794C12.3137 12.2312 11.2636 11.9441 10.5006 12.2395Z" fill="white"/>
<path d="M17.5076 12.3621C16.4985 12.8872 16.0636 14.0932 16.4903 15.1351C16.6379 15.5042 17.163 16.0539 17.5486 16.259C18.0162 16.5051 18.9761 16.5051 19.4437 16.259C20.4036 15.7504 20.8794 14.7085 20.6005 13.7404C20.3051 12.7477 19.5093 12.1324 18.5002 12.1324C18.049 12.1324 17.8603 12.1734 17.5076 12.3621Z" fill="white"/>
<path d="M24.8499 12.3213C23.2583 13.0843 23.1845 15.3404 24.7186 16.1772C26.2035 16.9894 27.9346 15.9557 27.9346 14.2657C27.9346 13.6258 27.7541 13.191 27.3275 12.7643C26.8845 12.3213 26.5809 12.1901 25.8836 12.1572C25.3585 12.1326 25.2026 12.1572 24.8499 12.3213Z" fill="white"/>
</svg>
