<?xml version="1.0" encoding="UTF-8"?>
<svg version="1.1" xmlns="http://www.w3.org/2000/svg" width="512" height="512">
<path d="M0 0 C0.99515625 0.70898438 1.9903125 1.41796875 3.015625 2.1484375 C9.17376284 6.64861515 14.88769561 11.46009591 20.46875 16.65625 C22.68482777 18.70817386 24.94505634 20.67466306 27.25 22.625 C57.68822799 49.15589761 75.0935656 90.74852478 80 130 C80 141.55 80 153.1 80 165 C-57.28 165 -194.56 165 -336 165 C-336 123.23450135 -336 123.23450135 -333 111 C-332.80132324 110.16936035 -332.60264648 109.3387207 -332.39794922 108.48291016 C-329.25346711 95.6953496 -324.81471841 83.80143707 -319 72 C-318.67773438 71.33774414 -318.35546875 70.67548828 -318.0234375 69.99316406 C-307.52149693 48.6370837 -291.54699762 27.96550842 -273 13 C-271.98421875 12.16984375 -270.9684375 11.3396875 -269.921875 10.484375 C-196.40002832 -48.91242922 -89.27334673 -55.51761487 0 0 Z M-265.23828125 51.89453125 C-284.50205196 72.52973745 -302 103.08036603 -302 132 C-187.16 132 -72.32 132 46 132 C46.07678233 126.06879036 46.07678233 126.06879036 45.08203125 120.6171875 C44.88246826 119.84930908 44.68290527 119.08143066 44.47729492 118.2902832 C44.2579126 117.49323975 44.03853027 116.69619629 43.8125 115.875 C43.58473877 115.03606201 43.35697754 114.19712402 43.12231445 113.33276367 C38.12048883 95.34101931 30.22420202 78.9138186 19 64 C18.33742188 63.113125 17.67484375 62.22625 16.9921875 61.3125 C3.4333445 43.99017587 -12.96846602 29.95754987 -32 19 C-33.68996094 18.01386719 -33.68996094 18.01386719 -35.4140625 17.0078125 C-109.58021203 -25.0906381 -206.83495054 -8.75702769 -265.23828125 51.89453125 Z " fill="#000000" transform="translate(384,321)"/>
<path d="M0 0 C2.63971245 2.44242744 5.19101294 4.96228271 7.7121582 7.52636719 C8.53329102 8.34878906 9.35442383 9.17121094 10.20043945 10.01855469 C33.47194108 34.53602618 39.70602217 65.11588118 38.89575195 97.89941406 C37.41644814 127.12353302 20.65873936 153.47793435 -0.32495117 172.80908203 C-13.76998674 184.57181588 -30.95371968 192.61486695 -48.2878418 196.52636719 C-49.73030273 196.8628125 -49.73030273 196.8628125 -51.2019043 197.20605469 C-80.36644818 202.82349982 -111.22723021 196.68639855 -135.97387695 180.41796875 C-148.54517066 171.75865579 -160.30424282 160.56970162 -168.2878418 147.52636719 C-168.85631836 146.66398438 -169.42479492 145.80160156 -170.01049805 144.91308594 C-185.06144285 120.99696925 -189.21322407 90.69843147 -184.1003418 63.08886719 C-183.54328995 60.88889745 -182.94019121 58.69998488 -182.2878418 56.52636719 C-181.95913086 55.33140625 -181.63041992 54.13644531 -181.29174805 52.90527344 C-172.91578747 25.05303082 -153.74618875 1.48945715 -128.4050293 -12.69628906 C-87.90405539 -34.3624938 -34.97158497 -31.08362365 0 0 Z M-134.2878418 34.52636719 C-149.71707068 53.58600287 -154.12798219 74.5347153 -152.2878418 98.52636719 C-150.56114496 112.8465595 -142.97439682 127.89722813 -133.2878418 138.52636719 C-132.57241211 139.33332031 -131.85698242 140.14027344 -131.11987305 140.97167969 C-116.66136798 156.39722995 -97.18987427 165.21772317 -76.03881836 165.93139648 C-55.03811522 166.19740539 -35.9158806 159.86577823 -20.2878418 145.52636719 C-19.53245117 144.8625 -18.77706055 144.19863281 -17.9987793 143.51464844 C-4.12248298 130.61589189 5.33568431 111.39790434 6.14575195 92.41308594 C6.16942472 90.34681488 6.17028418 88.28017091 6.1496582 86.21386719 C6.14063477 85.12082275 6.13161133 84.02777832 6.12231445 82.90161133 C5.7016771 63.17693254 -1.97885731 45.98099686 -15.2878418 31.52636719 C-15.82666992 30.89601563 -16.36549805 30.26566406 -16.9206543 29.61621094 C-30.1964764 14.97277902 -50.62429928 7.76296265 -69.8503418 6.24511719 C-94.56857348 5.5709836 -118.06671281 15.7507297 -134.2878418 34.52636719 Z " fill="#000000" transform="translate(329.287841796875,52.4736328125)"/>
</svg>
